<svg version="1.1" xmlns="http://www.w3.org/2000/svg" xmlns:xlink="http://www.w3.org/1999/xlink" width="214.99038" height="201.97061" viewBox="0,0,214.99038,201.97061"><g transform="translate(-87.99126,-96.81008)"><g data-paper-data="{&quot;isPaintingLayer&quot;:true}" fill-rule="nonzero" stroke-linecap="butt" stroke-linejoin="miter" stroke-miterlimit="10" stroke-dasharray="" stroke-dashoffset="0" style="mix-blend-mode: normal"><path d="M250.28331,295.94295l-11.464,-77.80091l33.34325,-4.91315l11.464,77.80091z" fill="#000000" stroke="#ffffff" stroke-width="5"/><path d="M153.76929,210.0971l47.29302,-64.49479l27.82625,20.40456l-47.29302,64.49479z" fill="#000000" stroke="#ffffff" stroke-width="5"/><path d="M211.49856,219.98816v-79.97629h57.00289v79.97629z" fill="#000000" stroke="#ffffff" stroke-width="5"/><path d="M266.00071,229.27443l-11.49209,-79.14632l34.14765,-4.95826l11.49209,79.14632z" fill="#000000" stroke="#ffffff" stroke-width="5"/><g fill="#000000" stroke="#ffffff" stroke-width="2.5"><path d="M148.24268,224.62618l-0.58425,0.18447c-17.04027,16.44216 -24.46581,23.61825 -41.51162,40.0546c-0.35565,0.34294 -5.37048,5.05267 -5.84104,5.9157c-1.17445,2.15392 -1.22726,4.51294 -2.34872,6.68223c-0.73898,1.4294 -2.7042,3.22461 -2.0684,4.32517c0.15648,0.27086 0.68462,-0.4667 1.04856,-0.58585c0.87463,-0.28639 1.75008,-0.41139 2.62512,-0.61708c4.12746,-0.9817 5.09621,-2.83269 8.43184,-6.05124c3.78453,-3.65169 7.56902,-7.30337 11.35353,-10.95505c7.2999,-7.04369 14.46835,-14.4208 22.25653,-20.89617c2.59857,-2.16054 5.4466,-3.9505 8.04944,-6.1052c6.27537,-5.19489 2.46011,-2.28411 8.33779,-8.04711c-2.7139,-1.79393 -5.5858,-3.35911 -8.31509,-5.18981c-0.61671,0.81554 -1.4337,1.28532 -1.4337,1.28532zM152.72144,240.54458c-2.65614,2.20614 -5.56382,4.03953 -8.21903,6.24691c-7.59498,6.31395 -14.58285,13.53505 -21.70169,20.40402c-3.78453,3.65169 -7.56903,7.30336 -11.35353,10.95504c-0.79403,0.76614 -6.42413,6.24326 -6.96311,6.55299c-1.60991,0.92511 -3.37125,1.03607 -5.05686,1.55408c-2.1302,0.47751 -6.92347,1.9059 -8.2326,0.24927c-3.38201,-4.27974 1.2808,-8.48592 2.9076,-13.05603c0.49514,-1.39099 0.38464,-2.8503 1.14955,-4.18573c3.50139,-6.11295 11.95156,-12.36755 17.0217,-17.25972c13.84701,-13.361 18.08488,-17.45011 31.93188,-30.81112l0.70522,-0.4525c-2.18563,-0.7993 -4.36947,-1.51712 -5.50699,-3.84757c-2.8652,-5.8701 2.5446,-14.00006 10.13949,-14.72965c2.45297,-0.23563 5.17204,1.42492 7.00354,2.30792c2.37962,2.45196 4.90136,4.64365 7.43957,6.80539c5.15362,-3.29039 8.46945,-8.62377 13.47803,-12.06325c2.41722,-1.65995 8.30889,-4.46342 10.69038,-2.5828c6.6072,5.21766 -4.71211,13.16549 -9.38889,17.6781c-1.09395,1.05556 -2.13135,2.17662 -3.28185,3.16664c-0.51724,0.4451 -1.32238,0.54894 -1.68931,1.11118c-0.2297,0.35194 3.98723,4.21031 4.05593,4.28247c1.1887,1.24854 3.89216,3.75388 4.03592,5.63477c0.12112,1.58459 -0.88497,3.37751 -1.32746,5.06625c-2.78582,2.76004 -5.06429,6.01737 -9.18334,5.9414c-3.04657,-0.05618 -5.88919,-4.48467 -7.66489,-6.34437c-0.53836,-0.56382 -1.09763,-1.09498 -1.67397,-1.59975c-6.21207,6.03703 -2.69504,3.4773 -9.31532,8.97601zM167.95432,214.66945c0.54759,0.47634 1.09285,0.95693 1.63452,1.44412c0.76531,-0.77565 1.70168,-1.48391 2.442,-2.25333c3.77229,-3.92056 9.07747,-7.54011 12.41131,-11.67741c0.32487,-0.40316 -0.85842,-0.24874 -1.31451,-0.05354c-1.10462,0.47277 -2.27743,0.83168 -3.27993,1.58237c-1.37436,1.02914 -2.45604,2.43244 -3.69326,3.63932c-2.81019,2.74129 -5.24211,5.14804 -8.20013,7.31847zM171.48785,225.98902c-1.2086,0.13692 -1.96688,-0.65723 -1.96688,-0.65723l-0.55419,-0.5804c-5.30119,-5.55191 -11.44758,-9.60597 -16.68478,-15.20019c-0.7226,-0.33769 -2.95572,-1.53647 -4.04455,-1.52846c-2.73916,0.02016 -4.60432,3.20393 -3.44753,5.07127c1.57232,2.53807 5.38419,2.52561 7.7341,4.18096c5.36929,3.78225 11.36865,6.44583 15.97654,11.27164c1.01205,1.05991 3.18545,4.76429 4.74173,5.10222c0.83215,0.18069 1.68496,-1.25798 2.47276,-1.96018c0.59085,-1.90205 -1.66089,-3.15923 -2.65448,-4.19662c-0.46527,-0.48577 -1.01258,-0.98102 -1.57278,-1.503z"/><path d="M149.71803,223.28941c2.72929,1.83067 5.61214,3.40723 8.32605,5.20117c-5.87767,5.76299 -2.06089,2.85485 -8.33628,8.04976c-2.60285,2.15469 -5.45023,3.94601 -8.04879,6.10652c-7.78818,6.47535 -15.04421,13.94456 -22.3441,20.98825c-3.78453,3.65169 -7.57826,7.29864 -11.36278,10.95031c-3.33564,3.21858 -4.30815,5.06659 -8.4356,6.04829c-0.87504,0.20569 -1.75226,0.32897 -2.62691,0.61537c-0.36394,0.11917 -0.89243,0.85634 -1.04891,0.58547c-0.6358,-1.10057 1.3274,-2.89808 2.06636,-4.32747c1.12148,-2.1693 1.17013,-4.53464 2.34455,-6.68857c0.47056,-0.86301 5.48353,-5.5769 5.83917,-5.91983c17.0458,-16.43635 24.56804,-23.69796 41.60831,-40.14012l0.58479,-0.18413c0,0 0.81742,-0.4695 1.43412,-1.28502z" data-paper-data="{&quot;noHover&quot;:false,&quot;origItem&quot;:[&quot;Path&quot;,{&quot;applyMatrix&quot;:true,&quot;segments&quot;:[[454.24679,357.70457],[[454.79267,356.87833],[0,0],[0,-35.57568]],[[454.79267,270.21275],[-0.01606,35.57567],[0.00034,-0.74225]],[[454.39017,257.72799],[0.58859,1.40674],[-1.46901,-3.51096]],[[448.03465,248.24271],[1.56471,3.46936],[-1.03102,-2.28604]],[[444.68216,241.50761],[2.4669,0.451],[-0.60715,-0.111]],[[444.06918,243.25483],[0.33389,-0.5191],[-0.80243,1.24754]],[[441.3118,246.74755],[0.91913,-1.16424],[-4.31893,5.50353]],[[438.31152,262.18816],[0,-6.96398],[0,7.90109]],[[438.31152,285.89144],[0,-7.90109],[0,15.24031]],[[437.47796,331.75641],[1.49602,-15.18121],[-0.49916,5.0653]],[[435.08636,346.83747],[0.51351,-5.06387],[-1.23806,12.20886]],[[435.08921,364.24668],[-0.13186,-12.36613],[6.35068,-1.08767]],[[454.10569,360.59602],[-6.42494,1.06628],[-0.31729,-1.51628]]],&quot;closed&quot;:true}]}"/><path d="M176.14612,207.29748c1.23721,-1.20688 2.36654,-2.6096 3.7409,-3.63875c1.00251,-0.75069 2.18474,-1.10201 3.28936,-1.57476c0.45608,-0.19519 1.64305,-0.34479 1.31819,0.05837c-3.33384,4.1373 -8.73258,7.84915 -12.50488,11.76971c-0.74032,0.76943 -1.67941,1.47574 -2.44473,2.25139c-0.54167,-0.4872 -1.09614,-0.97826 -1.64372,-1.4546c2.95801,-2.17044 5.43466,-4.67004 8.24487,-7.41136z" data-paper-data="{&quot;noHover&quot;:false,&quot;origItem&quot;:[&quot;Path&quot;,{&quot;applyMatrix&quot;:true,&quot;segments&quot;:[[[441.20307,389.45414],[-0.98406,5.46615],[-1.44599,0.10079]],[[436.85479,389.73189],[1.4534,-0.08309],[0.05355,1.63636]],[[436.7066,394.72334],[-0.07927,-1.60276],[0.40394,8.16679]],[[436.27731,420.3255],[-1.32477,-7.91523],[0.12909,0.77131]],[[438.17985,418.95268],[-0.35244,0.69812],[0.85359,-1.69082]],[[440.45733,413.74686],[-0.31176,1.86823],[0.42741,-2.5612]],[[440.3484,405.95777],[0.01884,2.59655],[-0.04279,-5.89783]]],&quot;closed&quot;:true}]}"/><path d="M173.10702,227.51402c0.99359,1.03739 3.24105,2.30035 2.6502,4.20241c-0.7878,0.70219 -1.6461,2.14711 -2.47824,1.96642c-1.55629,-0.33793 -3.80456,-4.10874 -4.8166,-5.16865c-4.60788,-4.82582 -10.61393,-7.48121 -15.98321,-11.26344c-2.34992,-1.65536 -6.16177,-1.64291 -7.7341,-4.18099c-1.15678,-1.86733 0.72017,-5.06443 3.45932,-5.08458c1.08881,-0.00801 3.32752,1.18603 4.05011,1.52373c5.2372,5.59423 11.45957,9.70929 16.76076,15.26119l0.55328,0.58187c0,0 0.75866,0.79357 1.96725,0.65665c0.5602,0.52195 1.10594,1.01962 1.57123,1.5054z" data-paper-data="{&quot;noHover&quot;:false,&quot;origItem&quot;:[&quot;Path&quot;,{&quot;applyMatrix&quot;:true,&quot;segments&quot;:[[[420.00468,381.54917],[-1.52915,0.06717],[1.48133,-1.45533]],[423.68201,380.09383],[[425.28693,380.09383],[0,0],[15.3522,0]],[[470.33359,377.73478],[-15.32424,-0.11344],[1.4895,-0.43483]],[[478.15005,374.92577],[-1.50051,1.19143],[3.77489,-2.99733]],[[475.63898,365.91795],[4.29395,0.68045],[-5.83632,-0.92486]],[[458.88126,369.98403],[5.64576,-0.83597],[-12.89986,1.9101]],[[420.47217,375.64957],[13.34441,0],[-2.9309,0]],[[406.54408,375.50824],[2.64758,-1.34049],[-1.41567,0.71676]],[[405.93129,380.22896],[0.08342,-1.58458],[1.91699,2.61549]],[[415.65742,381.69875],[-2.87282,0.00332],[1.34525,-0.00156]]],&quot;closed&quot;:true}]}"/></g><path d="M218.73483,141.84041v-42.53033h42.53033v42.53033z" fill="#000000" stroke="#ffffff" stroke-width="5"/><path d="M276.15773,264.6923l-75.37946,-22.41302l9.60558,-32.30548l75.37946,22.41302z" fill="#000000" stroke="#ffffff" stroke-width="5"/><path d="M132.58989,212.90909c1.95452,-0.12873 2.46433,1.91048 2.46433,1.91048l0.34758,3.00183c-1.37323,4.01623 -3.6527,6.82692 -6.62239,9.80425c-4.1499,4.14019 -7.14496,9.39785 -11.84704,13.02803c-5.10877,3.94416 -11.61675,7.86179 -17.62064,10.04474c-1.83725,0.668 -8.29783,3.32545 -10.46648,1.50867c-0.99908,-0.83697 -0.84549,-6.1838 -0.84549,-7.89264c0,-7.66944 -0.00324,-15.3389 0.00383,-23.00834c0.55781,-5.03773 2.17622,-10.01101 2.4078,-15.06888c0.63278,-13.82049 2.68409,-26.34416 8.22617,-39.14975c2.20904,-5.10424 4.79489,-11.17674 8.40281,-15.4581c1.17915,-1.39926 6.04937,-5.14134 7.91036,-4.2093c1.59288,0.79776 1.32035,6.53552 1.32035,8.22263c0,9.66834 0.54357,20.29282 3.9518,29.45658c1.57788,4.24248 3.46098,8.36675 5.10993,12.57775c2.17822,5.56264 4.12402,10.39906 7.25709,15.23205z" fill="#ff0000" stroke="none" stroke-width="0.5"/></g></g></svg>