<svg version="1.1" xmlns="http://www.w3.org/2000/svg" xmlns:xlink="http://www.w3.org/1999/xlink" width="22.44508" height="22.44508" viewBox="0,0,22.44508,22.44508"><g transform="translate(-228.77746,-168.77746)"><g data-paper-data="{&quot;isPaintingLayer&quot;:true}" fill="#ff0000" fill-rule="nonzero" stroke="#000000" stroke-width="0" stroke-linecap="butt" stroke-linejoin="miter" stroke-miterlimit="10" stroke-dasharray="" stroke-dashoffset="0" style="mix-blend-mode: normal"><path d="M241.81469,180.00001c0,-2.5979 2.10602,-4.70393 4.70392,-4.70392c2.5979,0 4.70392,2.10602 4.70392,4.70392c0,2.5979 -2.10602,4.70392 -4.70392,4.70392c-2.5979,0 -4.70393,-2.10602 -4.70392,-4.70392z"/><path d="M240,178.18531c-2.5979,0 -4.70393,-2.10602 -4.70392,-4.70392c0,-2.5979 2.10602,-4.70392 4.70392,-4.70392c2.5979,0 4.70392,2.10602 4.70392,4.70392c0,2.5979 -2.10602,4.70393 -4.70392,4.70392z"/><path d="M228.77746,180.00001c0,-2.5979 2.10602,-4.70392 4.70392,-4.70392c2.5979,0 4.70393,2.10602 4.70392,4.70392c0,2.5979 -2.10602,4.70393 -4.70392,4.70392c-2.5979,0 -4.70392,-2.10602 -4.70392,-4.70392z"/><path d="M240,191.22254c-2.5979,0 -4.70392,-2.10602 -4.70392,-4.70392c0,-2.5979 2.10602,-4.70393 4.70392,-4.70392c2.5979,0 4.70393,2.10602 4.70392,4.70392c0,2.5979 -2.10602,4.70392 -4.70392,4.70392z"/><path d="M240,191.22254l-11.22254,-11.22254l11.22254,-11.22254l11.22254,11.22254z"/></g></g></svg>