<svg version="1.1" xmlns="http://www.w3.org/2000/svg" xmlns:xlink="http://www.w3.org/1999/xlink" width="192.39212" height="268.37238" viewBox="0,0,192.39212,268.37238"><g transform="translate(-168.3495,-10.20251)"><g data-paper-data="{&quot;isPaintingLayer&quot;:true}" fill-rule="nonzero" stroke-linecap="butt" stroke-linejoin="miter" stroke-miterlimit="10" stroke-dasharray="" stroke-dashoffset="0" style="mix-blend-mode: normal"><path d="M174.14145,206.5887l12.14514,-79.04874l34.10555,5.24002l-12.14513,79.04874z" data-paper-data="{&quot;index&quot;:null}" fill="#ffb600" stroke="#171717" stroke-width="5"/><path d="M171.78953,257.44883l41.26745,-66.94329l28.68998,17.68604l-41.26745,66.94329z" data-paper-data="{&quot;index&quot;:null}" fill="#82ff00" stroke="#171717" stroke-width="5"/><path d="M251.14235,275.02676l-18.77373,-76.36723l32.72881,-8.04588l18.77373,76.36723z" data-paper-data="{&quot;index&quot;:null}" fill="#82ff00" stroke="#171717" stroke-width="5"/><path d="M207.7668,198.72244v-79.97629h57.00289v79.97629z" data-paper-data="{&quot;index&quot;:null}" fill="#0200ff" stroke="#171717" stroke-width="5"/><path d="M215.00309,120.57469v-42.53033h42.53033v42.53033z" data-paper-data="{&quot;index&quot;:null}" fill="#ffb600" stroke="#171717" stroke-width="5"/><g fill="#000000" stroke="#ffffff" stroke-width="2.5"><path d="M333.97973,93.10428l0.4271,-0.43928c7.21478,-22.55354 10.35343,-32.39143 17.57584,-54.94247c0.15069,-0.47054 2.3351,-6.9942 2.34055,-7.97717c0.01361,-2.45326 -1.0577,-4.55565 -1.09804,-6.99735c-0.02657,-1.6089 0.85338,-4.12099 -0.228,-4.78888c-0.26615,-0.16438 -0.38174,0.73537 -0.64578,1.01276c-0.63451,0.66664 -1.34619,1.19154 -2.0193,1.78732c-3.16949,2.82028 -3.14551,4.90929 -4.55781,9.32416c-1.60236,5.00899 -3.20469,10.01794 -4.80704,15.02692c-3.09076,9.66174 -5.90773,19.55482 -9.69777,28.94748c-1.26456,3.13389 -2.92438,6.0597 -4.19549,9.19048c-3.06457,7.5482 -1.08407,3.17712 -3.52925,11.03718c3.23994,0.29378 6.5106,0.31127 9.78149,0.63011c0.15664,-1.0104 0.65347,-1.81121 0.65347,-1.81121zM322.49285,81.20862c1.29366,-3.20135 2.98542,-6.19364 4.27769,-9.39563c3.69638,-9.15898 6.42827,-18.82907 9.44237,-28.25116c1.60236,-5.00899 3.20469,-10.01794 4.80704,-15.02692c0.33619,-1.05092 2.69881,-8.54192 3.02668,-9.07005c0.97934,-1.57749 2.47782,-2.50983 3.71671,-3.76469c1.6496,-1.42989 5.19377,-4.95901 7.13159,-4.12049c5.00614,2.16622 2.89312,8.07967 3.62606,12.87502c0.22309,1.45953 1.01187,2.69226 0.97108,4.2307c-0.18676,7.04222 -4.66436,16.55416 -6.81104,23.26468c-5.86275,18.32713 -7.65706,23.93616 -13.51982,42.26327l-0.40661,0.73264c2.30343,-0.33177 4.56666,-0.73445 6.67265,0.77875c5.30464,3.81159 4.39306,13.53432 -1.94935,17.7756c-2.04845,1.36982 -5.22972,1.19596 -7.26096,1.2862c-3.25737,-1.03164 -6.51655,-1.76675 -9.77605,-2.46769c-2.9792,5.33954 -3.37196,11.60736 -6.15275,17.00948c-1.34206,2.60716 -5.20191,7.86765 -8.1902,7.34001c-8.29072,-1.46394 -2.08886,-13.82644 -0.10873,-20.01636c0.46318,-1.4479 0.84551,-2.9267 1.38952,-4.34366c0.24459,-0.63704 0.90439,-1.10998 0.9611,-1.77899c0.03551,-0.41876 -5.50622,-1.81832 -5.60091,-1.84931c-1.6384,-0.53621 -5.20622,-1.46143 -6.22408,-3.04963c-0.8575,-1.33802 -0.8211,-3.39359 -1.23165,-5.09038c1.1454,-3.75055 1.60836,-7.69862 5.27161,-9.58353c2.70945,-1.39413 7.31109,1.15867 9.75599,1.95494c0.74126,0.24141 1.48543,0.44415 2.23215,0.61554c2.6098,-8.2598 0.72556,-4.33917 3.94992,-12.31837zM321.33942,111.21251c-0.7079,-0.15999 -1.41581,-0.32484 -2.12366,-0.49719c-0.3064,1.04569 -0.79537,2.11307 -1.08272,3.14142c-1.46417,5.23994 -4.42087,10.94122 -5.39622,16.16428c-0.09507,0.50896 0.8738,-0.18772 1.18294,-0.57572c0.74871,-0.93974 1.61144,-1.81153 2.13854,-2.94764c0.7226,-1.5575 1.0102,-3.3058 1.52784,-4.95484c1.17574,-3.7456 2.17689,-7.01735 3.75329,-10.33031zM312.86407,102.91876c0.99942,-0.69326 2.04348,-0.35323 2.04348,-0.35323l0.76304,0.24849c7.29902,2.37712 14.63257,3.03472 21.89528,5.47943c0.79635,-0.04501 3.33088,-0.04753 4.2859,-0.5705c2.40257,-1.31568 2.53643,-5.00314 0.63293,-6.09942c-2.58724,-1.48999 -5.93809,0.3272 -8.79184,-0.01703c-6.52044,-0.78648 -13.06564,-0.28928 -19.41009,-2.35551c-1.39347,-0.45382 -5.06266,-2.68608 -6.59327,-2.2462c-0.8184,0.23519 -0.8877,1.90619 -1.24872,2.89786c0.38097,1.95495 2.95956,1.99505 4.3261,2.43778c0.6399,0.2073 1.35657,0.38409 2.09718,0.5783z"/><path d="M333.31393,94.98054c-3.27089,-0.31886 -6.5566,-0.34117 -9.79654,-0.63494c2.44515,-7.86004 0.46208,-3.49055 3.52666,-11.03879c1.2711,-3.1308 2.92973,-6.05744 4.1943,-9.19132c3.79003,-9.39263 6.64052,-19.4083 9.73126,-29.07005c1.60236,-5.00899 3.21506,-10.01816 4.81741,-15.02713c1.4123,-4.41488 1.39301,-6.50308 4.56251,-9.32334c0.6731,-0.59578 1.38719,-1.11997 2.02169,-1.78663c0.26401,-0.27738 0.38011,-1.17696 0.64625,-1.01259c1.0814,0.66788 0.20431,3.18106 0.2309,4.78993c0.04033,2.44171 1.11829,4.5477 1.10471,7.00098c-0.00544,0.98296 -2.18624,7.50942 -2.33695,7.97992c-7.2224,22.55104 -10.40569,32.51005 -17.62046,55.06361l-0.42772,0.43924c0,0 -0.49736,0.80078 -0.65401,1.81117z" data-paper-data="{&quot;noHover&quot;:false,&quot;origItem&quot;:[&quot;Path&quot;,{&quot;applyMatrix&quot;:true,&quot;segments&quot;:[[454.24679,357.70457],[[454.79267,356.87833],[0,0],[0,-35.57568]],[[454.79267,270.21275],[-0.01606,35.57567],[0.00034,-0.74225]],[[454.39017,257.72799],[0.58859,1.40674],[-1.46901,-3.51096]],[[448.03465,248.24271],[1.56471,3.46936],[-1.03102,-2.28604]],[[444.68216,241.50761],[2.4669,0.451],[-0.60715,-0.111]],[[444.06918,243.25483],[0.33389,-0.5191],[-0.80243,1.24754]],[[441.3118,246.74755],[0.91913,-1.16424],[-4.31893,5.50353]],[[438.31152,262.18816],[0,-6.96398],[0,7.90109]],[[438.31152,285.89144],[0,-7.90109],[0,15.24031]],[[437.47796,331.75641],[1.49602,-15.18121],[-0.49916,5.0653]],[[435.08636,346.83747],[0.51351,-5.06387],[-1.23806,12.20886]],[[435.08921,364.24668],[-0.13186,-12.36613],[6.35068,-1.08767]],[[454.10569,360.59602],[-6.42494,1.06628],[-0.31729,-1.51628]]],&quot;closed&quot;:true}]}"/><path d="M317.61883,121.58598c-0.51763,1.64904 -0.84743,3.41941 -1.57007,4.97692c-0.52709,1.13609 -1.40172,2.00564 -2.15046,2.94539c-0.30912,0.38799 -1.2835,1.08216 -1.18847,0.57322c0.97537,-5.22307 3.97069,-11.04992 5.4349,-16.28989c0.28735,-1.02835 0.77963,-2.09534 1.08604,-3.14102c0.70785,0.17236 1.42882,0.34208 2.13673,0.50206c-1.57639,3.31295 -2.57295,6.68767 -3.74868,10.4333z" data-paper-data="{&quot;noHover&quot;:false,&quot;origItem&quot;:[&quot;Path&quot;,{&quot;applyMatrix&quot;:true,&quot;segments&quot;:[[[441.20307,389.45414],[-0.98406,5.46615],[-1.44599,0.10079]],[[436.85479,389.73189],[1.4534,-0.08309],[0.05355,1.63636]],[[436.7066,394.72334],[-0.07927,-1.60276],[0.40394,8.16679]],[[436.27731,420.3255],[-1.32477,-7.91523],[0.12909,0.77131]],[[438.17985,418.95268],[-0.35244,0.69812],[0.85359,-1.69082]],[[440.45733,413.74686],[-0.31176,1.86823],[0.42741,-2.5612]],[[440.3484,405.95777],[0.01884,2.59655],[-0.04279,-5.89783]]],&quot;closed&quot;:true}]}"/><path d="M310.71558,102.34306c-1.36652,-0.44272 -3.9441,-0.48996 -4.32509,-2.44489c0.36101,-0.99164 0.43219,-2.67078 1.25059,-2.90596c1.5306,-0.43986 5.29722,1.81542 6.69067,2.26926c6.34443,2.06625 12.89165,1.55866 19.41208,2.34514c2.85375,0.34424 6.20461,-1.47296 8.79186,0.01705c1.9035,1.09625 1.76556,4.80103 -0.63701,6.11671c-0.95502,0.52298 -3.49224,0.53228 -4.28857,0.57732c-7.2627,-2.44471 -14.6921,-3.12003 -21.99109,-5.49716l-0.76293,-0.25022c0,0 -1.0441,-0.33934 -2.04351,0.35392c-0.74064,-0.1942 -1.45705,-0.37385 -2.09696,-0.58114z" data-paper-data="{&quot;noHover&quot;:false,&quot;origItem&quot;:[&quot;Path&quot;,{&quot;applyMatrix&quot;:true,&quot;segments&quot;:[[[420.00468,381.54917],[-1.52915,0.06717],[1.48133,-1.45533]],[423.68201,380.09383],[[425.28693,380.09383],[0,0],[15.3522,0]],[[470.33359,377.73478],[-15.32424,-0.11344],[1.4895,-0.43483]],[[478.15005,374.92577],[-1.50051,1.19143],[3.77489,-2.99733]],[[475.63898,365.91795],[4.29395,0.68045],[-5.83632,-0.92486]],[[458.88126,369.98403],[5.64576,-0.83597],[-12.89986,1.9101]],[[420.47217,375.64957],[13.34441,0],[-2.9309,0]],[[406.54408,375.50824],[2.64758,-1.34049],[-1.41567,0.71676]],[[405.93129,380.22896],[0.08342,-1.58458],[1.91699,2.61549]],[[415.65742,381.69875],[-2.87282,0.00332],[1.34525,-0.00156]]],&quot;closed&quot;:true}]}"/></g><path d="M334.00032,134.43724l-68.84383,40.70302l-17.5613,-29.70262l68.84382,-40.70302z" data-paper-data="{&quot;index&quot;:null}" fill="#ffb600" stroke="#171717" stroke-width="5"/></g></g></svg>