<svg version="1.1" xmlns="http://www.w3.org/2000/svg" xmlns:xlink="http://www.w3.org/1999/xlink" width="247.15113" height="257.27786" viewBox="0,0,247.15113,257.27786"><g transform="translate(-170.34951,-21.29704)"><g data-paper-data="{&quot;isPaintingLayer&quot;:true}" fill-rule="nonzero" stroke-linecap="butt" stroke-linejoin="miter" stroke-miterlimit="10" stroke-dasharray="" stroke-dashoffset="0" style="mix-blend-mode: normal"><path d="M174.14145,198.0887l12.14514,-79.04874l34.10555,5.24002l-12.14513,79.04874z" data-paper-data="{&quot;index&quot;:null}" fill="#ffb600" stroke="#171717" stroke-width="5"/><path d="M173.78953,257.44883l41.26745,-66.94329l28.68998,17.68604l-41.26745,66.94329z" data-paper-data="{&quot;index&quot;:null}" fill="#82ff00" stroke="#171717" stroke-width="5"/><path d="M251.14235,275.02676l-18.77373,-76.36723l32.72881,-8.04588l18.77373,76.36723z" data-paper-data="{&quot;index&quot;:null}" fill="#82ff00" stroke="#171717" stroke-width="5"/><path d="M207.7668,198.72244v-79.97629h57.00289v79.97629z" data-paper-data="{&quot;index&quot;:null}" fill="#0200ff" stroke="#171717" stroke-width="5"/><path d="M215.00309,120.57469v-42.53033h42.53033v42.53033z" data-paper-data="{&quot;index&quot;:null}" fill="#ffb600" stroke="#171717" stroke-width="5"/><g fill="#000000" stroke="#ffffff" stroke-width="2.5"><path d="M340.58576,92.81531l0.54973,-0.27051c14.36378,-18.82544 20.62133,-27.03995 34.99146,-45.86047c0.29983,-0.3927 4.54645,-5.80528 4.88139,-6.72944c0.83594,-2.30648 0.53214,-4.64645 1.31338,-6.96015c0.51479,-1.52455 2.1866,-3.59578 1.392,-4.58778c-0.19557,-0.24415 -0.60634,0.56466 -0.94815,0.73738c-0.8214,0.4151 -1.66794,0.67079 -2.50193,1.00619c-3.93203,1.59336 -4.61035,3.56932 -7.42207,7.25441c-3.1901,4.181 -6.38017,8.36197 -9.57026,12.54297c-6.15333,8.06465 -12.12636,16.43909 -18.84815,24.01563c-2.24275,2.52794 -4.78803,4.72723 -7.0359,7.25005c-5.41952,6.08241 -2.08723,2.62922 -7.02789,9.21323c2.95356,1.36383 6.02876,2.47768 9.00306,3.8755c0.48657,-0.89927 1.22329,-1.48696 1.22329,-1.48696zM333.75602,77.75511c2.29279,-2.58172 4.89047,-4.83293 7.18217,-7.41572c6.55515,-7.38783 12.37322,-15.58076 18.37392,-23.44537c3.1901,-4.181 6.38017,-8.36197 9.57026,-12.54297c0.66931,-0.8772 5.40837,-7.14125 5.89444,-7.52876c1.45185,-1.15746 3.17629,-1.53298 4.7644,-2.29942c2.03374,-0.79352 6.55656,-2.92892 8.1007,-1.48882c3.98913,3.72032 0.0145,8.58202 -0.904,13.34531c-0.27955,1.44977 0.0499,2.8757 -0.50471,4.31127c-2.53876,6.57133 -9.94827,14.02955 -14.22205,19.63082c-11.67207,15.29766 -15.24432,19.97951 -26.9164,35.27715l-0.62886,0.55374c2.28122,0.46031 4.54837,0.84034 6.02456,2.97243c3.71826,5.37047 -0.40267,14.22374 -7.80047,16.09113c-2.38931,0.60311 -5.32784,-0.62806 -7.27161,-1.22458c-2.72241,-2.06476 -5.54601,-3.85079 -8.38139,-5.60473c-4.59804,4.03043 -7.07103,9.80314 -11.50316,13.95909c-2.13903,2.00574 -7.54014,5.66622 -10.17817,4.16653c-7.31894,-4.1608 2.67131,-13.72581 6.61352,-18.89253c0.92213,-1.20856 1.77847,-2.47336 2.76637,-3.62565c0.44415,-0.51805 1.22439,-0.74219 1.50228,-1.35339c0.17396,-0.38257 -4.57695,-3.56038 -4.65575,-3.62134c-1.36351,-1.05485 -4.41408,-3.12352 -4.84006,-4.96117c-0.35886,-1.54817 0.36512,-3.47237 0.54769,-5.20855c2.3374,-3.14883 4.09819,-6.71271 8.18152,-7.25925c3.02015,-0.40423 6.49852,3.54454 8.53453,5.11497c0.61729,0.47612 1.2503,0.9168 1.89623,1.3288c5.22987,-6.90535 2.13939,-3.8442 7.85404,-10.27901zM322.60246,105.63273c-0.61319,-0.38823 -1.22475,-0.78105 -1.83374,-1.18091c-0.63949,0.88227 -1.45825,1.72371 -2.07398,2.59604c-3.13742,4.44493 -7.83563,8.82368 -10.5069,13.41671c-0.26033,0.44756 0.88613,0.11634 1.30753,-0.14544c1.02061,-0.63406 2.12584,-1.16584 3.00357,-2.05924c1.20329,-1.22477 2.06081,-2.77522 3.10173,-4.15499c2.36432,-3.13399 4.40518,-5.88017 7.00177,-8.47217zM317.40115,94.97608c1.17409,-0.31774 2.04354,0.35288 2.04354,0.35288l0.63544,0.4901c6.07833,4.68831 12.76613,7.76836 18.78758,12.50816c0.76529,0.22479 3.15374,1.07281 4.22887,0.90059c2.70474,-0.4333 4.06807,-3.86209 2.64274,-5.53349c-1.93734,-2.2717 -5.70366,-1.68413 -8.27648,-2.96591c-5.87858,-2.92864 -12.21119,-4.65633 -17.4946,-8.73149c-1.16043,-0.89505 -3.86795,-4.22901 -5.45742,-4.32818c-0.84987,-0.05303 -1.47581,1.49785 -2.14863,2.3109c-0.29704,1.96945 2.11862,2.8724 3.2574,3.74797c0.53325,0.40998 1.14906,0.81698 1.78158,1.24843z"/><path d="M339.32903,94.35942c-2.9743,-1.39783 -6.06206,-2.52128 -9.01562,-3.8851c4.94063,-6.58401 1.60645,-3.13317 7.02599,-9.21562c2.24787,-2.52283 4.79231,-4.72331 7.03506,-7.25124c6.72177,-7.57652 12.76751,-16.0552 18.92082,-24.11986c3.1901,-4.181 6.39001,-8.3587 9.5801,-12.53969c2.81173,-3.6851 3.49419,-5.65872 7.42622,-7.25206c0.83398,-0.3354 1.68255,-0.58962 2.50395,-1.00474c0.34177,-0.17272 0.75297,-0.9812 0.94853,-0.73706c0.79462,0.992 -0.87485,3.06521 -1.38962,4.58974c-0.78126,2.3137 -0.47239,4.65929 -1.30832,6.9658c-0.33493,0.92415 -4.57909,6.34058 -4.87893,6.73324c-14.37012,18.82052 -20.71036,27.13416 -35.07414,45.95962l-0.5503,0.27027c0,0 -0.73721,0.58748 -1.22379,1.48674z" data-paper-data="{&quot;noHover&quot;:false,&quot;origItem&quot;:[&quot;Path&quot;,{&quot;applyMatrix&quot;:true,&quot;segments&quot;:[[454.24679,357.70457],[[454.79267,356.87833],[0,0],[0,-35.57568]],[[454.79267,270.21275],[-0.01606,35.57567],[0.00034,-0.74225]],[[454.39017,257.72799],[0.58859,1.40674],[-1.46901,-3.51096]],[[448.03465,248.24271],[1.56471,3.46936],[-1.03102,-2.28604]],[[444.68216,241.50761],[2.4669,0.451],[-0.60715,-0.111]],[[444.06918,243.25483],[0.33389,-0.5191],[-0.80243,1.24754]],[[441.3118,246.74755],[0.91913,-1.16424],[-4.31893,5.50353]],[[438.31152,262.18816],[0,-6.96398],[0,7.90109]],[[438.31152,285.89144],[0,-7.90109],[0,15.24031]],[[437.47796,331.75641],[1.49602,-15.18121],[-0.49916,5.0653]],[[435.08636,346.83747],[0.51351,-5.06387],[-1.23806,12.20886]],[[435.08921,364.24668],[-0.13186,-12.36613],[6.35068,-1.08767]],[[454.10569,360.59602],[-6.42494,1.06628],[-0.31729,-1.51628]]],&quot;closed&quot;:true}]}"/><path d="M315.61701,114.15653c-1.04091,1.37977 -1.9456,2.93686 -3.14893,4.16162c-0.87772,0.89338 -1.9934,1.41907 -3.01405,2.05312c-0.42138,0.26178 -1.57219,0.58879 -1.3119,0.14123c2.67129,-4.59304 7.44802,-9.07712 10.58548,-13.52207c0.61573,-0.87233 1.43747,-1.71229 2.07697,-2.59455c0.60899,0.39987 1.23122,0.80165 1.84442,1.18988c-2.59658,2.59199 -4.66767,5.43672 -7.03199,8.57073z" data-paper-data="{&quot;noHover&quot;:false,&quot;origItem&quot;:[&quot;Path&quot;,{&quot;applyMatrix&quot;:true,&quot;segments&quot;:[[[441.20307,389.45414],[-0.98406,5.46615],[-1.44599,0.10079]],[[436.85479,389.73189],[1.4534,-0.08309],[0.05355,1.63636]],[[436.7066,394.72334],[-0.07927,-1.60276],[0.40394,8.16679]],[[436.27731,420.3255],[-1.32477,-7.91523],[0.12909,0.77131]],[[438.17985,418.95268],[-0.35244,0.69812],[0.85359,-1.69082]],[[440.45733,413.74686],[-0.31176,1.86823],[0.42741,-2.5612]],[[440.3484,405.95777],[0.01884,2.59655],[-0.04279,-5.89783]]],&quot;closed&quot;:true}]}"/><path d="M315.57037,93.71289c-1.13876,-0.87555 -3.55108,-1.78489 -3.25406,-3.75433c0.6728,-0.81303 1.30324,-2.37095 2.15311,-2.31791c1.58946,0.09919 4.38104,3.48752 5.54144,4.38259c5.28338,4.07517 11.62138,5.79375 17.49996,8.72239c2.57282,1.28178 6.33915,0.69421 8.27649,2.96593c1.42534,1.67137 0.05236,5.11511 -2.65238,5.54841c-1.07513,0.17223 -3.46839,-0.6703 -4.23367,-0.89506c-6.02144,-4.7398 -12.79359,-7.8687 -18.87189,-12.55701l-0.63475,-0.4917c0,0 -0.86972,-0.66999 -2.0438,-0.35224c-0.63255,-0.43144 -1.24715,-0.84105 -1.78042,-1.25103z" data-paper-data="{&quot;noHover&quot;:false,&quot;origItem&quot;:[&quot;Path&quot;,{&quot;applyMatrix&quot;:true,&quot;segments&quot;:[[[420.00468,381.54917],[-1.52915,0.06717],[1.48133,-1.45533]],[423.68201,380.09383],[[425.28693,380.09383],[0,0],[15.3522,0]],[[470.33359,377.73478],[-15.32424,-0.11344],[1.4895,-0.43483]],[[478.15005,374.92577],[-1.50051,1.19143],[3.77489,-2.99733]],[[475.63898,365.91795],[4.29395,0.68045],[-5.83632,-0.92486]],[[458.88126,369.98403],[5.64576,-0.83597],[-12.89986,1.9101]],[[420.47217,375.64957],[13.34441,0],[-2.9309,0]],[[406.54408,375.50824],[2.64758,-1.34049],[-1.41567,0.71676]],[[405.93129,380.22896],[0.08342,-1.58458],[1.91699,2.61549]],[[415.65742,381.69875],[-2.87282,0.00332],[1.34525,-0.00156]]],&quot;closed&quot;:true}]}"/></g><path d="M338.71097,131.40259l-75.72111,25.73952l-11.10531,-32.66982l75.7211,-25.73952z" data-paper-data="{&quot;index&quot;:null}" fill="#ffb600" stroke="#171717" stroke-width="5"/><path d="M353.50551,113.71449c-0.3376,-0.31303 -0.60933,-0.76899 -0.68467,-1.43316c-0.09491,-0.46423 -0.09026,-1.03374 0.23088,-1.58458c0.26688,-0.54557 0.70716,-0.8616 1.12768,-1.04468c0.70339,-1.43397 1.18142,-2.98567 1.90616,-4.41234c2.04393,-4.02354 6.17175,-6.57989 8.62735,-10.21596c1.18557,-1.7555 1.58006,-3.93157 2.42279,-5.87507c2.33229,-3.09973 2.91291,-6.61019 4.34312,-10.17718c1.17859,-2.93943 2.86619,-5.48662 3.98439,-8.45997c0.59589,-1.58452 0.87521,-3.29638 1.64075,-4.80626c0.44611,-0.87988 4.10743,-4.99531 4.65785,-5.75294c2.36209,-3.25134 4.48455,-6.687 7.17539,-9.71965c2.65634,-2.99378 5.06047,-7.89887 9.7895,-7.29602c2.58945,0.3301 6.48512,3.79258 8.4927,5.36145c1.00105,1.92765 2.48687,3.59385 3.36289,5.58144c1.6881,3.83015 2.42917,8.95812 3.17677,13.06972c0.84391,4.64122 2.04768,9.0014 3.00868,13.55025c1.16606,5.51949 0.53228,11.76977 0.53228,17.40046c0,6.16339 0.69889,12.69106 -0.51217,18.74634c-0.02105,3.30006 -1.0254,5.90414 -1.51724,9.13596c-1.13141,7.43434 -2.78111,14.58063 -5.6569,21.56469c-1.17394,2.851 -2.8444,5.48578 -3.94902,8.36435c-1.57813,4.11253 -2.83364,8.51791 -4.55498,12.64537c-1.56675,3.75677 -3.95298,7.17885 -5.47976,10.9496c-0.90017,2.22318 -1.52765,4.56324 -2.59387,6.71173c-2.30356,4.60098 -5.20124,8.90527 -7.49645,13.49287c-2.38073,4.75854 -4.09474,8.78486 -8.03034,12.71348c-6.00495,5.9943 -14.20146,9.08588 -21.82083,12.01242c-3.59409,1.38046 -6.64384,3.33397 -10.43775,4.12223c-6.09775,1.00846 -11.96687,2.99642 -18.08656,4.0122c-8.38059,1.39106 -16.90809,1.02876 -25.36414,1.02876c-6.23331,0 -15.75666,1.71114 -20.138,-4.11137c-0.03594,-0.04776 -0.07142,-0.09582 -0.10647,-0.14416l-0.0233,0.0233l-2,-2c-0.45241,-0.45241 -0.73223,-1.07741 -0.73223,-1.76777c0,-1.38071 1.11929,-2.5 2.5,-2.5h2.5c1.86946,0.0057 3.74591,-0.15311 5.589,-0.46598c4.7593,-0.79322 9.10656,-2.10542 13.69863,-3.43037c0.65844,-0.18998 1.43797,0.03262 2.03272,-0.30783c0.81272,-0.46521 1.15481,-1.55246 1.98247,-1.99053c2.38781,-1.26382 5.26348,-1.31552 7.75027,-2.37135c8.20653,-3.48428 15.65849,-8.50064 22.30528,-14.31942c0.99842,-0.87404 5.66989,-4.141 6.27503,-4.77758c2.7174,-2.85861 4.71716,-7.63776 6.7338,-11.02239c3.68494,-9.5794 7.14067,-19.44521 8.65387,-29.6384c0.73538,-4.9537 0.47893,-10.18308 0.47893,-15.17614c0,-8.40673 -1.0853,-18.46769 -5.79449,-25.68551z" fill="#ffffff" stroke="none" stroke-width="0.5"/></g></g></svg>