<svg version="1.1" xmlns="http://www.w3.org/2000/svg" xmlns:xlink="http://www.w3.org/1999/xlink" width="163.78057" height="199.31971" viewBox="0,0,163.78057,199.31971"><g transform="translate(-122.69412,-75.54436)"><g data-paper-data="{&quot;isPaintingLayer&quot;:true}" fill-rule="nonzero" stroke-linecap="butt" stroke-linejoin="miter" stroke-miterlimit="10" stroke-dasharray="" stroke-dashoffset="0" style="mix-blend-mode: normal"><path d="M190.3342,265.11544l15.85707,-77.02571l33.01102,6.79588l-15.85707,77.02571z" data-paper-data="{&quot;index&quot;:null}" fill="#82ff00" stroke="#171717" stroke-width="5"/><path d="M212.29222,202.21505l-27.45403,-75.11647l32.40897,-11.84503l27.45404,75.11647z" data-paper-data="{&quot;index&quot;:null}" fill="#ffb600" stroke="#171717" stroke-width="5"/><path d="M250.34319,271.52725l-12.707,-77.6076l33.2604,-5.44585l12.707,77.6076z" data-paper-data="{&quot;index&quot;:null}" fill="#82ff00" stroke="#171717" stroke-width="5"/><path d="M207.7668,198.72244v-79.97629h57.00289v79.97629z" data-paper-data="{&quot;index&quot;:null}" fill="#0200ff" stroke="#171717" stroke-width="5"/><path d="M215.00309,120.57469v-42.53033h42.53033v42.53033z" data-paper-data="{&quot;index&quot;:null}" fill="#ffb600" stroke="#171717" stroke-width="5"/><g fill="#000000" stroke="#ffffff" stroke-width="2.5"><path d="M205.41753,203.20353l-0.59103,-0.16143c-23.23021,4.59052 -33.35916,6.60029 -56.59088,11.18292c-0.48473,0.09562 -7.25128,1.33808 -8.11432,1.80862c-2.15396,1.17437 -3.4762,3.12871 -5.59395,4.3447c-1.39545,0.80123 -4.01982,1.24572 -4.08154,2.51523c-0.01519,0.31245 0.82827,-0.02144 1.19875,0.07554c0.89033,0.23305 1.69393,0.60218 2.5409,0.90328c4.00124,1.41057 5.8182,0.37944 10.36552,-0.51916c5.15927,-1.01952 10.3185,-2.03904 15.47776,-3.05857c9.95162,-1.96654 19.97336,-4.28457 30.02757,-5.50889c3.35464,-0.4085 6.71823,-0.37039 10.07331,-0.77166c8.08895,-0.96744 3.3052,-0.58739 11.3676,-2.2478c-1.30951,-2.97803 -2.87573,-5.84936 -4.17828,-8.8666c-0.96016,0.35146 -1.90137,0.30381 -1.90137,0.30381zM200.55953,219.01032c-3.42774,0.41565 -6.865,0.38173 -10.29263,0.79891c-9.80438,1.19331 -19.5898,3.478 -29.29458,5.39575c-5.15927,1.01952 -10.3185,2.03903 -15.47776,3.05857c-1.08245,0.2139 -8.7819,1.76812 -9.40272,1.7365c-1.85437,-0.09444 -3.39504,-0.95525 -5.09252,-1.43288c-2.04927,-0.75251 -6.85215,-2.14827 -7.0552,-4.24995c-0.52459,-5.42944 5.6733,-6.43931 9.51635,-9.39966c1.16967,-0.90103 1.86729,-2.18755 3.23364,-2.89575c6.25449,-3.24177 16.74559,-3.92195 23.65746,-5.28779c18.87699,-3.73029 24.65429,-4.87194 43.53127,-8.60223l0.83791,0.00165c-1.40423,-1.8558 -2.85109,-3.64214 -2.54491,-6.21725c0.77131,-6.48633 9.72257,-10.38983 16.5019,-6.88906c2.18956,1.13067 3.57567,3.99937 4.63687,5.73371c0.67208,3.35008 1.6046,6.55836 2.56719,9.75039c6.11439,0.02581 11.79064,-2.6612 17.86386,-2.8393c2.93105,-0.08596 9.40206,0.74893 10.38519,3.61977c2.72756,7.96489 -11.09246,8.51418 -17.46809,9.77406c-1.49133,0.2947 -2.97063,0.67511 -4.47397,0.88411c-0.67589,0.09395 -1.40891,-0.2549 -2.02192,0.01896c-0.38372,0.17141 1.07092,5.69894 1.08958,5.7968c0.32289,1.6934 1.23825,5.26377 0.34024,6.92269c-0.75654,1.39759 -2.57343,2.35969 -3.86014,3.53953c-3.83678,0.81098 -7.51646,2.31484 -10.93771,0.01976c-2.53045,-1.69751 -2.52107,-6.9598 -3.00632,-9.4849c-0.14712,-0.76557 -0.32951,-1.51499 -0.54055,-2.25148c-8.49192,1.70962 -4.149,1.4631 -12.69246,2.4991zM227.38019,205.51159c0.20227,0.69701 0.40028,1.39636 0.59169,2.0993c1.06346,-0.23744 2.23421,-0.32556 3.27329,-0.5713c5.29462,-1.25215 11.71474,-1.42095 16.75822,-3.0928c0.49147,-0.1629 -0.58684,-0.67408 -1.07594,-0.75707c-1.18461,-0.20095 -2.36487,-0.53456 -3.6142,-0.44657c-1.71273,0.12061 -3.38211,0.71427 -5.07584,1.05857c-3.84712,0.78204 -7.19504,1.48776 -10.85719,1.70989zM224.21878,216.94066c-1.09009,-0.53959 -1.29731,-1.61789 -1.29731,-1.61789l-0.15145,-0.78807c-1.4487,-7.53841 -4.41921,-14.27558 -5.79119,-21.81488c-0.42447,-0.67529 -1.65224,-2.89259 -2.57182,-3.47566c-2.31341,-1.46682 -5.60583,0.19908 -5.64498,2.39535c-0.05316,2.98515 3.15777,5.0395 4.23638,7.70389c2.46454,6.08775 6.06467,11.57647 7.32391,18.12899c0.27657,1.43917 0.09687,5.73029 1.22203,6.85735c0.60161,0.60263 2.09777,-0.14472 3.14036,-0.30823c1.52697,-1.27878 0.31521,-3.55526 0.04194,-4.96549c-0.12797,-0.66036 -0.31976,-1.37314 -0.50789,-2.11534z"/><path d="M207.38182,202.87904c1.30254,3.01725 2.87181,5.90407 4.18133,8.8821c-8.06238,1.66043 -3.27877,1.28339 -11.36776,2.25084c-3.35507,0.40127 -6.71885,0.36462 -10.07347,0.77311c-10.0542,1.22431 -20.19945,3.57231 -30.15106,5.53886c-5.15927,1.01952 -10.32371,2.03007 -15.48296,3.04958c-4.54735,0.8986 -6.36584,1.92523 -10.36708,0.51465c-0.84697,-0.3011 -1.65111,-0.67266 -2.54146,-0.90569c-0.37046,-0.09696 -1.21402,0.23641 -1.19883,-0.07604c0.0617,-1.26952 2.68563,-1.71704 4.08106,-2.51827c2.11777,-1.21599 3.43994,-3.17789 5.59389,-4.35228c0.86302,-0.47054 7.63028,-1.7175 8.11499,-1.8131c23.23171,-4.58264 33.48827,-6.61191 56.71848,-11.20244l0.5913,0.162c0,0 0.94143,0.04814 1.90159,-0.30331z" data-paper-data="{&quot;noHover&quot;:false,&quot;origItem&quot;:[&quot;Path&quot;,{&quot;applyMatrix&quot;:true,&quot;segments&quot;:[[454.24679,357.70457],[[454.79267,356.87833],[0,0],[0,-35.57568]],[[454.79267,270.21275],[-0.01606,35.57567],[0.00034,-0.74225]],[[454.39017,257.72799],[0.58859,1.40674],[-1.46901,-3.51096]],[[448.03465,248.24271],[1.56471,3.46936],[-1.03102,-2.28604]],[[444.68216,241.50761],[2.4669,0.451],[-0.60715,-0.111]],[[444.06918,243.25483],[0.33389,-0.5191],[-0.80243,1.24754]],[[441.3118,246.74755],[0.91913,-1.16424],[-4.31893,5.50353]],[[438.31152,262.18816],[0,-6.96398],[0,7.90109]],[[438.31152,285.89144],[0,-7.90109],[0,15.24031]],[[437.47796,331.75641],[1.49602,-15.18121],[-0.49916,5.0653]],[[435.08636,346.83747],[0.51351,-5.06387],[-1.23806,12.20886]],[[435.08921,364.24668],[-0.13186,-12.36613],[6.35068,-1.08767]],[[454.10569,360.59602],[-6.42494,1.06628],[-0.31729,-1.51628]]],&quot;closed&quot;:true}]}"/><path d="M238.25935,203.75222c1.69373,-0.3443 3.40285,-0.91167 5.11558,-1.03227c1.24932,-0.08798 2.43339,0.25712 3.618,0.45809c0.4891,0.08297 1.56788,0.60019 1.07643,0.76311c-5.04349,1.67185 -11.59221,1.86755 -16.88686,3.1197c-1.03908,0.24574 -2.21107,0.33078 -3.27454,0.56821c-0.19141,-0.70294 -0.39148,-1.41608 -0.59375,-2.11309c3.66215,-0.22213 7.09798,-0.98167 10.94511,-1.76372z" data-paper-data="{&quot;noHover&quot;:false,&quot;origItem&quot;:[&quot;Path&quot;,{&quot;applyMatrix&quot;:true,&quot;segments&quot;:[[[441.20307,389.45414],[-0.98406,5.46615],[-1.44599,0.10079]],[[436.85479,389.73189],[1.4534,-0.08309],[0.05355,1.63636]],[[436.7066,394.72334],[-0.07927,-1.60276],[0.40394,8.16679]],[[436.27731,420.3255],[-1.32477,-7.91523],[0.12909,0.77131]],[[438.17985,418.95268],[-0.35244,0.69812],[0.85359,-1.69082]],[[440.45733,413.74686],[-0.31176,1.86823],[0.42741,-2.5612]],[[440.3484,405.95777],[0.01884,2.59655],[-0.04279,-5.89783]]],&quot;closed&quot;:true}]}"/><path d="M224.75375,219.09963c0.27326,1.41022 1.47831,3.68926 -0.04865,4.96804c-1.04257,0.16351 -2.54675,0.91315 -3.14835,0.31051c-1.12514,-1.12708 -0.9724,-5.51459 -1.24895,-6.95375c-1.25922,-6.55252 -4.86942,-12.03797 -7.33396,-18.12572c-1.07861,-2.66438 -4.28955,-4.71875 -4.23636,-7.70391c0.03913,-2.19625 3.34869,-3.86696 5.66209,-2.40014c0.91957,0.58307 2.15459,2.79943 2.57907,3.4747c1.37198,7.53931 4.37333,14.36894 5.82202,21.90732l0.14988,0.78881c0,0 0.20784,1.07801 1.29793,1.61759c0.18815,0.7422 0.37731,1.45616 0.5053,2.11652z" data-paper-data="{&quot;noHover&quot;:false,&quot;origItem&quot;:[&quot;Path&quot;,{&quot;applyMatrix&quot;:true,&quot;segments&quot;:[[[420.00468,381.54917],[-1.52915,0.06717],[1.48133,-1.45533]],[423.68201,380.09383],[[425.28693,380.09383],[0,0],[15.3522,0]],[[470.33359,377.73478],[-15.32424,-0.11344],[1.4895,-0.43483]],[[478.15005,374.92577],[-1.50051,1.19143],[3.77489,-2.99733]],[[475.63898,365.91795],[4.29395,0.68045],[-5.83632,-0.92486]],[[458.88126,369.98403],[5.64576,-0.83597],[-12.89986,1.9101]],[[420.47217,375.64957],[13.34441,0],[-2.9309,0]],[[406.54408,375.50824],[2.64758,-1.34049],[-1.41567,0.71676]],[[405.93129,380.22896],[0.08342,-1.58458],[1.91699,2.61549]],[[415.65742,381.69875],[-2.87282,0.00332],[1.34525,-0.00156]]],&quot;closed&quot;:true}]}"/></g><path d="M223.84852,223.19623l-3.78956,-79.88647l34.46697,-1.63501l3.78956,79.88646z" data-paper-data="{&quot;index&quot;:null}" fill="#ffb600" stroke="#171717" stroke-width="5"/></g></g></svg>