<svg version="1.1" xmlns="http://www.w3.org/2000/svg" xmlns:xlink="http://www.w3.org/1999/xlink" width="189.19803" height="216.71101" viewBox="0,0,189.19803,216.71101"><g transform="translate(-113.78362,-96.81008)"><g data-paper-data="{&quot;isPaintingLayer&quot;:true}" fill-rule="nonzero" stroke-linecap="butt" stroke-linejoin="miter" stroke-miterlimit="10" stroke-dasharray="" stroke-dashoffset="0" style="mix-blend-mode: normal"><path d="M250.28331,295.94295l-11.464,-77.80091l33.34325,-4.91315l11.464,77.80091z" fill="#000000" stroke="#ffffff" stroke-width="5"/><path d="M156.25481,213.09707l39.75113,-69.39781l29.94165,17.15061l-39.75113,69.39781z" fill="#000000" stroke="#ffffff" stroke-width="5"/><path d="M211.49856,219.98816v-79.97629h57.00289v79.97629z" fill="#000000" stroke="#ffffff" stroke-width="5"/><path d="M266.00071,229.27443l-11.49209,-79.14632l34.14765,-4.95826l11.49209,79.14632z" fill="#000000" stroke="#ffffff" stroke-width="5"/><g fill="#000000" stroke="#ffffff" stroke-width="2.5"><path d="M154.47491,235.78753l-0.50148,0.35198c-11.29228,20.81345 -16.20969,29.89387 -27.50901,50.70346c-0.23575,0.43418 -3.5979,6.43636 -3.78646,7.40109c-0.47065,2.40773 0.18999,4.67297 -0.2255,7.0794c-0.2738,1.58565 -1.60657,3.8897 -0.66863,4.74745c0.23083,0.2111 0.51212,-0.65134 0.82323,-0.87464c0.74764,-0.53668 1.54471,-0.91973 2.31706,-1.37958c3.63965,-2.18005 4.00547,-4.23695 6.21593,-8.31117c2.50794,-4.62252 5.01584,-9.24503 7.52377,-13.86753c4.83751,-8.91631 9.44919,-18.11092 14.92356,-26.63251c1.82656,-2.84328 4.00266,-5.40838 5.83506,-8.24737c4.41784,-6.84469 1.65729,-2.91936 5.52471,-10.18589c-3.12839,-0.89256 -6.33847,-1.51937 -9.49262,-2.44234c-0.34223,0.96349 -0.97964,1.65766 -0.97964,1.65766zM163.54315,249.61583c-1.8677,2.90411 -4.0876,5.5286 -5.95404,8.4336c-5.33881,8.30944 -9.82532,17.30087 -14.54286,25.99602c-2.50794,4.62252 -5.01586,9.24502 -7.52378,13.86753c-0.5262,0.96983 -4.24371,7.88915 -4.66428,8.34692c-1.25622,1.36731 -2.90222,2.00397 -4.35332,3.00593c-1.88722,1.09733 -6.02709,3.90398 -7.77465,2.71895c-4.51464,-3.06141 -1.33638,-8.47734 -1.16264,-13.32526c0.05288,-1.47554 -0.49231,-2.83368 -0.16546,-4.33756c1.49616,-6.88399 7.66827,-15.3946 11.02817,-21.5874c9.17616,-16.91313 11.98453,-22.08937 21.16068,-39.00251l0.53605,-0.64401c-2.3249,-0.10339 -4.62354,-0.12964 -6.41055,-2.00887c-4.50119,-4.73357 -1.79329,-14.11598 5.22854,-17.10071c2.26789,-0.96399 5.361,-0.20017 7.37347,0.08976c3.00798,1.62073 6.07301,2.95047 9.14474,4.24667c3.92226,-4.69066 5.47644,-10.77541 9.21548,-15.56452c1.80451,-2.3113 6.57726,-6.76013 9.41482,-5.68474c7.87254,2.98365 -0.52497,13.97349 -3.62419,19.68583c-0.72494,1.33619 -1.37622,2.71778 -2.17483,4.00852c-0.35904,0.5803 -1.09544,0.92197 -1.27585,1.56866c-0.11294,0.4048 5.07079,2.81279 5.15804,2.86089c1.50972,0.83221 4.84258,2.40624 5.54654,4.15634c0.59308,1.4744 0.17415,3.48718 0.26122,5.23076c-1.82441,3.47133 -3.01519,7.26392 -6.96559,8.43294c-2.92183,0.86466 -6.967,-2.50115 -9.22064,-3.73919c-0.68325,-0.37534 -1.37661,-0.71324 -2.07829,-1.02083c-4.10366,7.62859 -1.52167,4.12788 -6.17682,11.36622zM170.26903,220.35279c0.66569,0.28915 1.33044,0.58305 1.99376,0.88433c0.49595,-0.97024 1.17531,-1.92779 1.6493,-2.88456c2.41523,-4.8752 6.3828,-9.9254 8.31465,-14.87512c0.18826,-0.48233 -0.89347,0.02156 -1.26952,0.34513c-0.91076,0.78371 -1.92087,1.47941 -2.65049,2.49734c-1.00027,1.39551 -1.60871,3.05957 -2.42465,4.58322c-1.8533,3.46079 -3.44675,6.4886 -5.61306,9.44964zM177.04991,230.081c-1.11113,0.49482 -2.07351,-0.03386 -2.07351,-0.03386l-0.70335,-0.38638c-6.728,-3.69598 -13.81046,-5.70903 -20.49019,-9.46464c-0.79078,-0.1042 -3.28137,-0.57418 -4.31714,-0.23838c-2.60571,0.8448 -3.42456,4.44267 -1.75876,5.87452c2.26417,1.94616 5.89503,0.78539 8.63458,1.65551c6.25957,1.98809 12.78274,2.71963 18.63084,5.93224c1.28444,0.7056 4.47326,3.58266 6.05902,3.43582c0.84792,-0.07852 1.22746,-1.70732 1.76698,-2.61431c-0.00989,-1.99168 -2.53584,-2.51174 -3.79589,-3.20142c-0.59005,-0.32295 -1.26117,-0.63022 -1.95264,-0.95908z"/><path d="M155.47877,234.06825c3.15413,0.92295 6.37809,1.55731 9.5065,2.44987c-3.86741,7.26651 -1.10462,3.34324 -5.52247,10.18795c-1.8324,2.83899 -4.00748,5.40519 -5.83403,8.24843c-5.47438,8.52157 -10.14181,17.83039 -14.97931,26.7467c-2.50794,4.62252 -5.02609,9.2433 -7.53403,13.86581c-2.21046,4.07426 -2.58077,6.12945 -6.22041,8.30949c-0.77236,0.45986 -1.57163,0.8418 -2.31929,1.37849c-0.3111,0.22332 -0.59283,1.0855 -0.82368,0.87438c-0.93794,-0.85777 0.39221,-3.16338 0.666,-4.74903c0.41551,-2.40643 -0.25101,-4.67645 0.21963,-7.08419c0.18857,-0.9647 3.54768,-6.97028 3.78343,-7.40445c11.29931,-20.80958 16.28314,-30.00069 27.57542,-50.81414l0.5021,-0.35182c0,0 0.6379,-0.69404 0.98013,-1.65751z" data-paper-data="{&quot;noHover&quot;:false,&quot;origItem&quot;:[&quot;Path&quot;,{&quot;applyMatrix&quot;:true,&quot;segments&quot;:[[454.24679,357.70457],[[454.79267,356.87833],[0,0],[0,-35.57568]],[[454.79267,270.21275],[-0.01606,35.57567],[0.00034,-0.74225]],[[454.39017,257.72799],[0.58859,1.40674],[-1.46901,-3.51096]],[[448.03465,248.24271],[1.56471,3.46936],[-1.03102,-2.28604]],[[444.68216,241.50761],[2.4669,0.451],[-0.60715,-0.111]],[[444.06918,243.25483],[0.33389,-0.5191],[-0.80243,1.24754]],[[441.3118,246.74755],[0.91913,-1.16424],[-4.31893,5.50353]],[[438.31152,262.18816],[0,-6.96398],[0,7.90109]],[[438.31152,285.89144],[0,-7.90109],[0,15.24031]],[[437.47796,331.75641],[1.49602,-15.18121],[-0.49916,5.0653]],[[435.08636,346.83747],[0.51351,-5.06387],[-1.23806,12.20886]],[[435.08921,364.24668],[-0.13186,-12.36613],[6.35068,-1.08767]],[[454.10569,360.59602],[-6.42494,1.06628],[-0.31729,-1.51628]]],&quot;closed&quot;:true}]}"/><path d="M175.85802,210.85465c0.81593,-1.52365 1.46997,-3.20152 2.47024,-4.59703c0.72964,-1.01793 1.75101,-1.70924 2.66177,-2.49293c0.37604,-0.32357 1.46273,-0.82397 1.27449,-0.34165c-1.93185,4.94971 -5.96081,10.11612 -8.37605,14.99133c-0.47399,0.95678 -1.15653,1.91328 -1.65249,2.88353c-0.66333,-0.30129 -1.34001,-0.6024 -2.00569,-0.89155c2.1663,-2.96104 3.77441,-6.09087 5.62772,-9.5517z" data-paper-data="{&quot;noHover&quot;:false,&quot;origItem&quot;:[&quot;Path&quot;,{&quot;applyMatrix&quot;:true,&quot;segments&quot;:[[[441.20307,389.45414],[-0.98406,5.46615],[-1.44599,0.10079]],[[436.85479,389.73189],[1.4534,-0.08309],[0.05355,1.63636]],[[436.7066,394.72334],[-0.07927,-1.60276],[0.40394,8.16679]],[[436.27731,420.3255],[-1.32477,-7.91523],[0.12909,0.77131]],[[438.17985,418.95268],[-0.35244,0.69812],[0.85359,-1.69082]],[[440.45733,413.74686],[-0.31176,1.86823],[0.42741,-2.5612]],[[440.3484,405.95777],[0.01884,2.59655],[-0.04279,-5.89783]]],&quot;closed&quot;:true}]}"/><path d="M179.05342,231.04708c1.26005,0.68968 3.78365,1.21655 3.79355,3.20823c-0.53953,0.90698 -0.92243,2.54339 -1.77033,2.62191c-1.58577,0.14684 -4.866,-2.771 -6.15044,-3.4766c-5.8481,-3.21262 -12.37518,-3.93434 -18.63473,-5.92241c-2.73957,-0.87013 -6.37041,0.29062 -8.63459,-1.65555c-1.6658,-1.43185 -0.83972,-5.04599 1.76599,-5.89077c1.03576,-0.3358 3.53025,0.12797 4.32102,0.23219c6.67975,3.75563 13.85303,5.80394 20.58103,9.4999l0.70293,0.38805c0,0 0.96256,0.52802 2.07368,0.03319c0.69146,0.32884 1.36182,0.63888 1.95189,0.96183z" data-paper-data="{&quot;noHover&quot;:false,&quot;origItem&quot;:[&quot;Path&quot;,{&quot;applyMatrix&quot;:true,&quot;segments&quot;:[[[420.00468,381.54917],[-1.52915,0.06717],[1.48133,-1.45533]],[423.68201,380.09383],[[425.28693,380.09383],[0,0],[15.3522,0]],[[470.33359,377.73478],[-15.32424,-0.11344],[1.4895,-0.43483]],[[478.15005,374.92577],[-1.50051,1.19143],[3.77489,-2.99733]],[[475.63898,365.91795],[4.29395,0.68045],[-5.83632,-0.92486]],[[458.88126,369.98403],[5.64576,-0.83597],[-12.89986,1.9101]],[[420.47217,375.64957],[13.34441,0],[-2.9309,0]],[[406.54408,375.50824],[2.64758,-1.34049],[-1.41567,0.71676]],[[405.93129,380.22896],[0.08342,-1.58458],[1.91699,2.61549]],[[415.65742,381.69875],[-2.87282,0.00332],[1.34525,-0.00156]]],&quot;closed&quot;:true}]}"/></g><path d="M218.73483,141.84041v-42.53033h42.53033v42.53033z" fill="#000000" stroke="#ffffff" stroke-width="5"/><path d="M276.15773,264.6923l-75.37946,-22.41302l9.60558,-32.30548l75.37946,22.41302z" fill="#000000" stroke="#ffffff" stroke-width="5"/><path d="M144.75252,232.11025c1.0582,0.52219 -0.0481,2.76408 -0.0481,2.76408c-5.20821,10.55431 -11.48173,23.26745 -16.68994,33.82175c-1.65713,3.35813 -3.30988,6.71868 -4.97147,10.07456c-0.64715,1.30703 -1.1736,2.72028 -1.94739,3.91808c-1.12232,1.73731 -2.35546,3.93128 -3.63414,4.72191c-0.91941,0.56848 -1.12224,-0.94863 -1.67361,-1.44005c-1.78893,-1.59441 -2.06077,-3.74705 -1.99567,-7.55652c0.18983,-11.10766 2.59621,-23.57029 7.10732,-36.68071c2.11572,-5.07408 4.32024,-10.70732 7.09059,-15.55442c0.8776,-1.53548 1.68458,-3.84071 2.75736,-4.48031c2.99756,-1.78716 1.3979,5.52629 2.34335,7.02087c1.44961,2.29154 3.42397,4.47823 5.85794,5.01765c1.22936,0.27245 2.44184,-0.02139 3.60557,0.16105l0.03368,-0.06825c0,0 1.1063,-2.2419 2.16451,-1.71971z" fill="#ff0000" stroke="none" stroke-width="0.5"/></g></g></svg>