<svg version="1.1" xmlns="http://www.w3.org/2000/svg" xmlns:xlink="http://www.w3.org/1999/xlink" width="227.93183" height="203.33984" viewBox="0,0,227.93183,203.33984"><g transform="translate(-116.62519,-75.54436)"><g data-paper-data="{&quot;isPaintingLayer&quot;:true}" fill-rule="nonzero" stroke-linecap="butt" stroke-linejoin="miter" stroke-miterlimit="10" stroke-dasharray="" stroke-dashoffset="0" style="mix-blend-mode: normal"><path d="M170.70097,260.5592l34.94062,-70.45254l30.19394,14.97455l-34.94062,70.45254z" data-paper-data="{&quot;index&quot;:null}" fill="#82ff00" stroke="#171717" stroke-width="5"/><path d="M212.29222,202.21505l-27.45403,-75.11647l32.40897,-11.84503l27.45404,75.11647z" data-paper-data="{&quot;index&quot;:null}" fill="#ffb600" stroke="#171717" stroke-width="5"/><path d="M247.43164,273.51602l-7.18578,-78.31201l33.56229,-3.07962l7.18578,78.31201z" data-paper-data="{&quot;index&quot;:null}" fill="#82ff00" stroke="#171717" stroke-width="5"/><path d="M207.7668,198.72244v-79.97629h57.00289v79.97629z" data-paper-data="{&quot;index&quot;:null}" fill="#0200ff" stroke="#171717" stroke-width="5"/><path d="M215.00309,120.57469v-42.53033h42.53033v42.53033z" data-paper-data="{&quot;index&quot;:null}" fill="#ffb600" stroke="#171717" stroke-width="5"/><g fill="#000000" stroke="#ffffff" stroke-width="2.5"><path d="M293.47067,200.00824l0.05595,0.61012c12.44089,20.14794 17.8731,28.93009 30.30712,49.08221c0.25944,0.42047 3.79458,6.3224 4.53775,6.96578c1.85478,1.60576 4.14857,2.15919 6.02965,3.71645c1.23948,1.02613 2.57554,3.32827 3.78616,2.94115c0.29796,-0.09528 -0.31037,-0.76822 -0.34938,-1.14919c-0.09377,-0.91554 -0.02969,-1.79753 -0.04453,-2.69631c-0.08122,-4.24182 -1.68374,-5.58215 -4.11905,-9.52612c-2.76303,-4.47472 -5.52605,-8.94941 -8.28909,-13.42412c-5.32956,-8.63121 -11.01291,-17.20489 -15.68329,-26.19232c-1.55829,-2.99869 -2.70145,-6.16231 -4.25313,-9.16395c-3.74103,-7.23683 -1.70851,-2.8897 -6.08925,-9.8588c-2.3302,2.27017 -4.47049,4.74337 -6.83986,7.02076c0.66568,0.77609 0.95092,1.67429 0.95092,1.67429zM309.97748,199.01829c1.59061,3.06466 2.76351,6.29579 4.35551,9.35981c4.55378,8.7643 10.12307,17.12834 15.32043,25.54546c2.76303,4.47472 5.52605,8.94941 8.28909,13.42412c0.5797,0.93883 4.73378,7.60521 4.92175,8.19774c0.56146,1.76985 0.2952,3.51449 0.44278,5.2717c0.01343,2.18302 0.38947,7.17045 -1.50774,8.0972c-4.90121,2.39418 -8.01922,-3.05667 -12.13868,-5.61845c-1.25381,-0.7797 -2.70323,-0.98218 -3.84538,-2.01366c-5.22818,-4.72163 -9.54205,-14.30894 -13.24367,-20.30372c-10.10954,-16.37232 -13.20356,-21.38307 -23.31309,-37.75539l-0.29212,-0.78534c-1.24595,1.96557 -2.4119,3.94672 -4.93099,4.56246c-6.34525,1.55089 -13.13832,-5.46456 -12.23556,-13.04082c0.29158,-2.44695 2.49253,-4.75054 3.74495,-6.35227c2.90205,-1.80356 5.58002,-3.80134 8.23223,-5.8216c-2.11874,-5.73562 -6.62469,-10.11012 -8.91999,-15.73572c-1.10776,-2.71502 -2.59373,-9.0682 -0.24954,-10.99512c6.50377,-5.34603 11.86174,7.40492 15.27619,12.93462c0.79868,1.29346 1.67341,2.54561 2.39603,3.88035c0.32487,0.60009 0.25505,1.40888 0.72638,1.88703c0.29502,0.29931 4.96214,-3.00031 5.04727,-3.05209c1.47283,-0.8959 4.49593,-3.00451 6.36436,-2.74487c1.57409,0.21874 3.11194,1.5832 4.6679,2.3748c2.10423,3.3092 4.80232,6.22843 3.85187,10.23704c-0.70299,2.96488 -5.6348,4.80038 -7.82968,6.13982c-0.66545,0.4061 -1.30342,0.83957 -1.91923,1.29535c4.57736,7.35413 2.82441,3.37306 6.78894,11.01155zM287.93505,178.62969c0.58191,-0.43372 1.16751,-0.86427 1.75877,-1.28991c-0.5951,-0.91279 -1.08794,-1.9784 -1.68226,-2.86545c-3.02834,-4.51995 -5.43651,-10.47371 -8.76992,-14.61136c-0.32481,-0.40321 -0.42565,0.78586 -0.33196,1.27303c0.22697,1.1799 0.32817,2.40222 0.84843,3.54148c0.71323,1.56182 1.8543,2.91726 2.77036,4.3829c2.08074,3.32903 3.91505,6.21726 5.40658,9.56929zM299.74719,177.58502c-0.12332,1.21006 -1.0606,1.78205 -1.0606,1.78205l-0.685,0.41805c-6.55255,3.99881 -11.82131,9.1421 -18.40159,13.06937c-0.48369,0.63422 -2.13006,2.56122 -2.35386,3.62681c-0.563,2.68075 2.15114,5.1805 4.22183,4.44744c2.81444,-0.99642 3.61315,-4.72368 5.73053,-6.66767c4.83787,-4.4418 8.71672,-9.73723 14.41231,-13.21307c1.25096,-0.76342 5.33288,-2.09903 5.99412,-3.54783c0.35356,-0.77465 -0.87075,-1.914 -1.38929,-2.83315c-1.73284,-0.98195 -3.44024,0.9508 -4.66525,1.70098c-0.57362,0.35129 -1.17399,0.78073 -1.80317,1.21704z"/><path d="M292.47834,198.28227c2.36937,-2.27738 4.52311,-4.75887 6.85331,-7.02905c4.38075,6.96908 2.3511,2.62102 6.09216,9.85788c1.55168,3.00164 2.69626,6.16491 4.25454,9.16359c4.67037,8.98741 10.42506,17.66627 15.75463,26.29746c2.76303,4.47472 5.51948,8.95743 8.2825,13.43214c2.43532,3.94399 4.03416,5.28734 4.11538,9.52916c0.01484,0.89877 -0.05133,1.78213 0.04246,2.69768c0.03902,0.38094 0.64689,1.05416 0.34894,1.14944c-1.21062,0.38714 -2.54937,-1.91352 -3.78884,-2.93963c-1.88108,-1.55728 -4.18193,-2.10799 -6.03673,-3.71374c-0.74316,-0.64337 -4.28277,-6.54438 -4.54218,-6.96484c-12.43403,-20.15211 -17.92923,-29.04694 -30.37013,-49.19488l-0.05551,-0.61057c0,0 -0.28486,-0.89859 -0.95053,-1.67468z" data-paper-data="{&quot;noHover&quot;:false,&quot;origItem&quot;:[&quot;Path&quot;,{&quot;applyMatrix&quot;:true,&quot;segments&quot;:[[454.24679,357.70457],[[454.79267,356.87833],[0,0],[0,-35.57568]],[[454.79267,270.21275],[-0.01606,35.57567],[0.00034,-0.74225]],[[454.39017,257.72799],[0.58859,1.40674],[-1.46901,-3.51096]],[[448.03465,248.24271],[1.56471,3.46936],[-1.03102,-2.28604]],[[444.68216,241.50761],[2.4669,0.451],[-0.60715,-0.111]],[[444.06918,243.25483],[0.33389,-0.5191],[-0.80243,1.24754]],[[441.3118,246.74755],[0.91913,-1.16424],[-4.31893,5.50353]],[[438.31152,262.18816],[0,-6.96398],[0,7.90109]],[[438.31152,285.89144],[0,-7.90109],[0,15.24031]],[[437.47796,331.75641],[1.49602,-15.18121],[-0.49916,5.0653]],[[435.08636,346.83747],[0.51351,-5.06387],[-1.23806,12.20886]],[[435.08921,364.24668],[-0.13186,-12.36613],[6.35068,-1.08767]],[[454.10569,360.59602],[-6.42494,1.06628],[-0.31729,-1.51628]]],&quot;closed&quot;:true}]}"/><path d="M282.47443,169.05717c-0.91607,-1.46564 -2.04645,-2.8675 -2.75966,-4.42934c-0.52025,-1.13924 -0.61202,-2.36915 -0.83897,-3.54907c-0.09371,-0.48715 0.01263,-1.67878 0.33745,-1.2756c3.33341,4.13766 5.81184,10.20243 8.8402,14.72242c0.59432,0.88706 1.08471,1.9549 1.6798,2.86771c-0.59128,0.42563 -1.18906,0.86294 -1.77097,1.29667c-1.49152,-3.35202 -3.40705,-6.30373 -5.4878,-9.63277z" data-paper-data="{&quot;noHover&quot;:false,&quot;origItem&quot;:[&quot;Path&quot;,{&quot;applyMatrix&quot;:true,&quot;segments&quot;:[[[441.20307,389.45414],[-0.98406,5.46615],[-1.44599,0.10079]],[[436.85479,389.73189],[1.4534,-0.08309],[0.05355,1.63636]],[[436.7066,394.72334],[-0.07927,-1.60276],[0.40394,8.16679]],[[436.27731,420.3255],[-1.32477,-7.91523],[0.12909,0.77131]],[[438.17985,418.95268],[-0.35244,0.69812],[0.85359,-1.69082]],[[440.45733,413.74686],[-0.31176,1.86823],[0.42741,-2.5612]],[[440.3484,405.95777],[0.01884,2.59655],[-0.04279,-5.89783]]],&quot;closed&quot;:true}]}"/><path d="M301.58174,176.32732c1.225,-0.75017 2.93716,-2.67752 4.66999,-1.69559c0.51853,0.91914 1.7478,2.06519 1.39423,2.83984c-0.66126,1.44878 -4.82402,2.84343 -6.07498,3.60682c-5.69559,3.47582 -9.56785,8.77954 -14.40572,13.22134c-2.11737,1.94399 -2.91609,5.67126 -5.73055,6.66767c-2.07067,0.73308 -4.79531,-1.78103 -4.23231,-4.46178c0.2238,-1.06559 1.86675,-2.99905 2.35042,-3.63327c6.58028,-3.92727 11.92484,-9.13185 18.47736,-13.13064l0.68624,-0.41683c0,0 0.93679,-0.57247 1.0601,-1.78252c0.62918,-0.43634 1.23156,-0.86372 1.80518,-1.21503z" data-paper-data="{&quot;noHover&quot;:false,&quot;origItem&quot;:[&quot;Path&quot;,{&quot;applyMatrix&quot;:true,&quot;segments&quot;:[[[420.00468,381.54917],[-1.52915,0.06717],[1.48133,-1.45533]],[423.68201,380.09383],[[425.28693,380.09383],[0,0],[15.3522,0]],[[470.33359,377.73478],[-15.32424,-0.11344],[1.4895,-0.43483]],[[478.15005,374.92577],[-1.50051,1.19143],[3.77489,-2.99733]],[[475.63898,365.91795],[4.29395,0.68045],[-5.83632,-0.92486]],[[458.88126,369.98403],[5.64576,-0.83597],[-12.89986,1.9101]],[[420.47217,375.64957],[13.34441,0],[-2.9309,0]],[[406.54408,375.50824],[2.64758,-1.34049],[-1.41567,0.71676]],[[405.93129,380.22896],[0.08342,-1.58458],[1.91699,2.61549]],[[415.65742,381.69875],[-2.87282,0.00332],[1.34525,-0.00156]]],&quot;closed&quot;:true}]}"/></g><path d="M292.21983,188.42874l-70.8815,-37.04082l15.98123,-30.58178l70.88149,37.04081z" data-paper-data="{&quot;index&quot;:null}" fill="#ffb600" stroke="#171717" stroke-width="5"/><path d="M282.93433,214.60073c0.22165,-0.73148 0.80904,-1.70073 2.36567,-1.70073c2.5,0 2.5,2.5 2.5,2.5l-0.15846,0.39616c7.29913,8.4691 7.80148,21.10729 14.21104,30.17664c1.97453,2.7939 4.31939,5.56789 6.62177,8.07071c1.04533,1.13634 3.29139,1.68399 3.32233,3.2277c0.05464,2.72568 -4.95348,4.63419 -6.68534,5.49348c-11.77411,2.44897 -23.5899,4.98701 -35.66771,5.58496c-9.17051,0.45401 -18.46106,0.05035 -27.64363,0.05035c-9.61348,0 -19.27333,0.31185 -28.8628,-0.3846c-11.62962,-2.71041 -22.55609,-6.92175 -33.68737,-11.14205c-7.41566,-2.81157 -14.60858,-5.82207 -21.89674,-8.90728c-2.77275,-1.17376 -5.75797,-1.90928 -8.35546,-3.43209c-1.95617,-1.14683 -3.96077,-3.36077 -5.67779,-4.61924c-5.6702,-4.15593 -10.78987,-8.24922 -15.78762,-13.24697c-2.12531,-2.12531 -5.04601,-4.37222 -6.44668,-7.1075c-1.72616,-3.37091 -3.13538,-7.83844 -3.71183,-11.55764c-0.66463,-4.28813 -2.68938,-7.42076 4.89262,-6.55875c1.94275,0.22088 3.41507,1.90548 5.10736,2.88487c2.39533,1.38625 4.85369,2.67993 7.39838,3.76798c9.69633,4.14595 19.41423,6.851 29.84277,8.32318c4.98345,0.55949 9.52479,1.91433 14.41025,2.96091c7.27812,1.55915 14.7384,2.80816 22.08041,4.03239c4.00514,0.66783 8.10369,0.85466 12.10428,1.5206c5.22621,0.86997 10.45666,2.09187 15.76742,2.47247c8.18069,0.58628 16.62085,-0.00629 24.82278,-0.00629c5.91196,0 11.54304,-0.40752 17.13622,-2.34604c4.68288,-1.62302 8.18311,-7.16313 11.99811,-10.45324z" fill="#ffffff" stroke="none" stroke-width="0.5"/></g></g></svg>