<svg version="1.1" xmlns="http://www.w3.org/2000/svg" xmlns:xlink="http://www.w3.org/1999/xlink" width="286.85404" height="202.50693" viewBox="0,0,286.85404,202.50693"><g transform="translate(-59.64647,-75.54436)"><g data-paper-data="{&quot;isPaintingLayer&quot;:true}" fill-rule="nonzero" stroke-linecap="butt" stroke-linejoin="miter" stroke-miterlimit="10" stroke-dasharray="" stroke-dashoffset="0" style="mix-blend-mode: normal"><path d="M186.72151,269.48109l10.70385,-77.90914l33.38963,4.58736l-10.70385,77.90914z" data-paper-data="{&quot;index&quot;:null}" fill="#82ff00" stroke="#171717" stroke-width="5"/><path d="M334.15988,176.57885l-77.04175,-21.4657l9.26136,-33.23963l77.04175,21.4657z" data-paper-data="{&quot;index&quot;:null}" fill="#ffb600" stroke="#171717" stroke-width="5"/><path d="M253.64235,275.02676l-18.77373,-76.36723l32.72881,-8.04588l18.77373,76.36723z" data-paper-data="{&quot;index&quot;:null}" fill="#82ff00" stroke="#171717" stroke-width="5"/><path d="M207.7668,198.72244v-79.97629h57.00289v79.97629z" data-paper-data="{&quot;index&quot;:null}" fill="#0200ff" stroke="#171717" stroke-width="5"/><path d="M215.00309,120.57469v-42.53033h42.53033v42.53033z" data-paper-data="{&quot;index&quot;:null}" fill="#ffb600" stroke="#171717" stroke-width="5"/><g fill="#000000" stroke="#ffffff" stroke-width="2.5"><path d="M134.54774,176.76121l-0.31304,-0.52667c-19.89999,-12.83377 -28.58258,-18.42372 -48.47818,-31.26421c-0.41512,-0.26792 -6.14587,-4.07428 -7.09357,-4.33526c-2.36526,-0.65136 -4.67397,-0.1639 -7.04208,-0.76017c-1.56041,-0.39291 -3.75708,-1.89609 -4.6833,-1.0257c-0.22796,0.21422 0.61074,0.55991 0.80989,0.88702c0.47861,0.78609 0.80029,1.60983 1.20043,2.41475c1.8986,3.79407 3.92193,4.31438 7.81736,6.82659c4.41965,2.85029 8.83927,5.70056 13.25892,8.55084c8.52499,5.49787 17.34457,10.7916 25.4278,16.89467c2.69701,2.03632 5.09024,4.40015 7.78254,6.44198c6.49103,4.92277 2.7857,1.87329 9.73898,6.27911c1.12655,-3.05194 1.99432,-6.20544 3.15313,-9.28076c-0.93485,-0.41411 -1.57884,-1.10217 -1.57884,-1.10217zM120.07333,184.75784c-2.75456,-2.08195 -5.20369,-4.49394 -7.95924,-6.57472c-7.88196,-5.95185 -16.50839,-11.10541 -24.82191,-16.46692c-4.41965,-2.85029 -8.83927,-5.70057 -13.25892,-8.55084c-0.92727,-0.59801 -7.54568,-4.8281 -7.97033,-5.28208c-1.2684,-1.35601 -1.77879,-3.04544 -2.66815,-4.56814c-0.9515,-1.9648 -3.43707,-6.30504 -2.12328,-7.95799c3.39401,-4.27022 8.55412,-0.69154 13.37503,-0.15171c1.46731,0.16429 2.8628,-0.27663 4.33765,0.163c6.75115,2.01241 14.77069,8.81039 20.69168,12.62894c16.17085,10.42879 21.11993,13.62051 37.29077,24.04929l0.60163,0.58322c0.27889,-2.31043 0.47887,-4.6005 2.48785,-6.2403c5.06038,-4.13037 14.21117,-0.72077 16.65639,6.50665c0.78974,2.33429 -0.20577,5.36079 -0.64706,7.34557c-1.84354,2.87681 -3.40123,5.83253 -4.926,8.79744c4.38064,4.26573 10.33046,6.27556 14.82312,10.366c2.16824,1.97412 6.24344,7.0696 4.95655,9.81772c-3.57039,7.62439 -13.89379,-1.58008 -19.35542,-5.10237c-1.27754,-0.8239 -2.60595,-1.57779 -3.8326,-2.47169c-0.55149,-0.4019 -0.83649,-1.16202 -1.4677,-1.39082c-0.39511,-0.14323 -3.18818,4.84357 -3.24273,4.92694c-0.94399,1.44248 -2.76553,4.64676 -4.56385,5.21638c-1.51503,0.47989 -3.49036,-0.09003 -5.23553,-0.13505c-3.32343,-2.08169 -7.01512,-3.55581 -7.88209,-7.58331c-0.64124,-2.97885 3.02079,-6.75792 4.42569,-8.91149c0.42594,-0.65293 0.8153,-1.31874 1.17506,-1.99514c-7.29645,-4.66876 -4.00101,-1.82944 -10.86662,-7.0186zM148.74402,193.67722c-0.33865,0.64192 -0.68199,1.28255 -1.03257,1.92119c0.92996,0.56789 1.83339,1.31772 2.75158,1.8627c4.67861,2.77696 9.41436,7.11505 14.20383,9.41564c0.46671,0.22419 0.04607,-0.89255 -0.24814,-1.29199c-0.7126,-0.96741 -1.32992,-2.02723 -2.28978,-2.83174c-1.31588,-1.10293 -2.92917,-1.83545 -4.38676,-2.76426c-3.31075,-2.10969 -6.20939,-3.92753 -8.99816,-6.31152zM138.53094,199.70309c-0.40938,-1.14537 0.19055,-2.06501 0.19055,-2.06501l0.43846,-0.67212c4.19414,-6.42927 6.73697,-13.33923 10.98692,-19.71585c0.16371,-0.78063 0.82065,-3.22855 0.56413,-4.28675c-0.64534,-2.66214 -4.171,-3.75069 -5.72473,-2.19793c-2.11178,2.11053 -1.22889,5.81876 -2.30369,8.48468c-2.45572,6.09132 -3.67841,12.5405 -7.32403,18.12894c-0.80071,1.22742 -3.91067,4.18954 -3.88413,5.78188c0.01418,0.85141 1.60963,1.35304 2.47322,1.95961c1.98674,0.14073 2.6963,-2.33864 3.47928,-3.54294c0.36664,-0.56394 0.72378,-1.20991 1.10399,-1.87452z"/><path d="M136.18621,177.89221c-1.15881,3.07531 -2.03514,6.24208 -3.16169,9.29403c-6.95327,-4.40579 -3.25014,-1.35425 -9.74121,-6.27703c-2.6923,-2.04182 -5.08668,-4.40472 -7.78367,-6.44104c-8.08322,-6.10307 -17.01246,-11.46103 -25.53745,-16.95889c-4.41965,-2.85029 -8.83679,-5.71063 -13.25642,-8.56092c-3.89545,-2.51223 -5.91675,-3.03685 -7.81535,-6.83093c-0.40014,-0.80492 -0.72054,-1.63079 -1.19917,-2.41688c-0.19915,-0.32708 -1.03755,-0.67321 -0.80959,-0.88743c0.92622,-0.87041 3.12467,0.63028 4.68506,1.02318c2.36813,0.59628 4.68204,0.10333 7.0473,0.75467c0.94769,0.26097 6.68207,4.06459 7.09717,4.3325c19.8956,12.84048 28.68353,18.50504 48.58353,31.33881l0.31284,0.52727c0,0 0.64381,0.68856 1.57865,1.10267z" data-paper-data="{&quot;noHover&quot;:false,&quot;origItem&quot;:[&quot;Path&quot;,{&quot;applyMatrix&quot;:true,&quot;segments&quot;:[[454.24679,357.70457],[[454.79267,356.87833],[0,0],[0,-35.57568]],[[454.79267,270.21275],[-0.01606,35.57567],[0.00034,-0.74225]],[[454.39017,257.72799],[0.58859,1.40674],[-1.46901,-3.51096]],[[448.03465,248.24271],[1.56471,3.46936],[-1.03102,-2.28604]],[[444.68216,241.50761],[2.4669,0.451],[-0.60715,-0.111]],[[444.06918,243.25483],[0.33389,-0.5191],[-0.80243,1.24754]],[[441.3118,246.74755],[0.91913,-1.16424],[-4.31893,5.50353]],[[438.31152,262.18816],[0,-6.96398],[0,7.90109]],[[438.31152,285.89144],[0,-7.90109],[0,15.24031]],[[437.47796,331.75641],[1.49602,-15.18121],[-0.49916,5.0653]],[[435.08636,346.83747],[0.51351,-5.06387],[-1.23806,12.20886]],[[435.08921,364.24668],[-0.13186,-12.36613],[6.35068,-1.08767]],[[454.10569,360.59602],[-6.42494,1.06628],[-0.31729,-1.51628]]],&quot;closed&quot;:true}]}"/><path d="M157.79236,199.96841c1.45759,0.92881 3.0812,1.70784 4.39708,2.81077c0.95985,0.80451 1.57193,1.87524 2.28452,2.84267c0.29422,0.39943 0.711,1.52085 0.24429,1.29667c-4.78948,-2.30059 -9.63643,-6.70867 -14.31506,-9.48566c-0.91819,-0.54498 -1.82037,-1.29789 -2.75033,-1.8658c0.35058,-0.63864 0.70201,-1.29062 1.04066,-1.93254c2.78877,2.384 5.78803,4.22418 9.0988,6.33387z" data-paper-data="{&quot;noHover&quot;:false,&quot;origItem&quot;:[&quot;Path&quot;,{&quot;applyMatrix&quot;:true,&quot;segments&quot;:[[[441.20307,389.45414],[-0.98406,5.46615],[-1.44599,0.10079]],[[436.85479,389.73189],[1.4534,-0.08309],[0.05355,1.63636]],[[436.7066,394.72334],[-0.07927,-1.60276],[0.40394,8.16679]],[[436.27731,420.3255],[-1.32477,-7.91523],[0.12909,0.77131]],[[438.17985,418.95268],[-0.35244,0.69812],[0.85359,-1.69082]],[[440.45733,413.74686],[-0.31176,1.86823],[0.42741,-2.5612]],[[440.3484,405.95777],[0.01884,2.59655],[-0.04279,-5.89783]]],&quot;closed&quot;:true}]}"/><path d="M137.41613,201.62781c-0.78299,1.20429 -1.49916,3.68083 -3.48589,3.54011c-0.86358,-0.60656 -2.46637,-1.11211 -2.48054,-1.96352c-0.02651,-1.59234 3.13101,-4.64253 3.93172,-5.86993c3.64563,-5.58843 4.85882,-12.04225 7.31453,-18.13356c1.07479,-2.66592 0.19192,-6.37417 2.30372,-8.48469c1.5537,-1.55275 5.09503,-0.45576 5.74037,2.20637c0.25651,1.05819 -0.39456,3.51047 -0.55825,4.2911c-4.24996,6.37663 -6.83483,13.37451 -11.02896,19.80376l-0.4401,0.67157c0,0 -0.59929,0.91987 -0.1899,2.06523c-0.38019,0.66461 -0.74004,1.30962 -1.10667,1.87357z" data-paper-data="{&quot;noHover&quot;:false,&quot;origItem&quot;:[&quot;Path&quot;,{&quot;applyMatrix&quot;:true,&quot;segments&quot;:[[[420.00468,381.54917],[-1.52915,0.06717],[1.48133,-1.45533]],[423.68201,380.09383],[[425.28693,380.09383],[0,0],[15.3522,0]],[[470.33359,377.73478],[-15.32424,-0.11344],[1.4895,-0.43483]],[[478.15005,374.92577],[-1.50051,1.19143],[3.77489,-2.99733]],[[475.63898,365.91795],[4.29395,0.68045],[-5.83632,-0.92486]],[[458.88126,369.98403],[5.64576,-0.83597],[-12.89986,1.9101]],[[420.47217,375.64957],[13.34441,0],[-2.9309,0]],[[406.54408,375.50824],[2.64758,-1.34049],[-1.41567,0.71676]],[[405.93129,380.22896],[0.08342,-1.58458],[1.91699,2.61549]],[[415.65742,381.69875],[-2.87282,0.00332],[1.34525,-0.00156]]],&quot;closed&quot;:true}]}"/></g><path d="M133.91935,203.94603l52.76436,-60.101l25.93055,22.76515l-52.76436,60.101z" data-paper-data="{&quot;index&quot;:null}" fill="#ffb600" stroke="#171717" stroke-width="5"/></g></g></svg>