<svg version="1.1" xmlns="http://www.w3.org/2000/svg" xmlns:xlink="http://www.w3.org/1999/xlink" width="175.3405" height="220.36605" viewBox="0,0,175.3405,220.36605"><g transform="translate(-127.64116,-96.81008)"><g data-paper-data="{&quot;isPaintingLayer&quot;:true}" fill="#000000" fill-rule="nonzero" stroke="#ffffff" stroke-linecap="butt" stroke-linejoin="miter" stroke-miterlimit="10" stroke-dasharray="" stroke-dashoffset="0" style="mix-blend-mode: normal"><path d="M250.28331,295.94295l-11.464,-77.80091l33.34325,-4.91315l11.464,77.80091z" stroke-width="5"/><path d="M156.25481,213.09707l39.75113,-69.39781l29.94165,17.15061l-39.75113,69.39781z" stroke-width="5"/><path d="M211.49856,219.98816v-79.97629h57.00289v79.97629z" stroke-width="5"/><path d="M266.00071,229.27443l-11.49209,-79.14632l34.14765,-4.95826l11.49209,79.14632z" stroke-width="5"/><g stroke-width="2.5"><path d="M158.0278,235.558l-0.45142,0.41424c-8.48799,22.10587 -12.18204,31.74895 -20.67751,53.8519c-0.17725,0.46116 -2.7298,6.8498 -2.79123,7.83087c-0.15335,2.4485 0.79643,4.60852 0.6976,7.04855c-0.06514,1.6078 -1.08678,4.06568 -0.0452,4.79409c0.25634,0.17927 0.42301,-0.71244 0.70242,-0.97432c0.67145,-0.6294 1.4119,-1.11291 2.11785,-1.66935c3.32503,-2.63511 3.4201,-4.72213 5.08162,-9.04934c1.88513,-4.90956 3.77022,-9.8191 5.65534,-14.72863c3.63618,-9.46997 7.01223,-19.18649 11.33121,-28.34796c1.44106,-3.05678 3.26488,-5.88323 4.71229,-8.93652c3.48964,-7.36135 1.26333,-3.11019 4.15233,-10.81817c-3.21793,-0.4779 -6.48228,-0.68168 -9.72972,-1.18638c-0.21395,0.99983 -0.75561,1.77104 -0.75561,1.77104zM168.8183,248.08876c-1.47393,3.12245 -3.33346,6.01348 -4.80602,9.13665c-4.21218,8.93349 -7.49057,18.43227 -11.03657,27.66734c-1.88513,4.90956 -3.77024,9.81909 -5.65535,14.72864c-0.39553,1.03005 -3.18108,8.37428 -3.53851,8.88288c-1.06762,1.51915 -2.61679,2.36457 -3.92517,3.54683c-1.72839,1.33357 -5.46786,4.65504 -7.35476,3.70748c-4.87461,-2.44793 -2.4281,-8.23137 -2.88666,-13.06068c-0.13957,-1.46988 -0.85685,-2.74553 -0.72846,-4.27915c0.58768,-7.02015 5.5999,-16.26152 8.12542,-22.83887c6.89738,-17.96335 9.00833,-23.46101 15.9057,-41.42438l0.44769,-0.70829c-2.31859,0.20001 -4.6011,0.47308 -6.61745,-1.15764c-5.07886,-4.10762 -3.61484,-13.76262 2.95891,-17.63567c2.12317,-1.2509 5.28937,-0.89605 7.32246,-0.87045c3.1933,1.21555 6.4053,2.13515 9.61958,3.02064c3.27856,-5.16115 4.02777,-11.3964 7.11185,-16.63132c1.48842,-2.52646 5.6417,-7.5585 8.59507,-6.86148c8.19385,1.9339 1.29775,13.923 -1.03182,19.99005c-0.54491,1.41916 -1.01088,2.87375 -1.63474,4.25743c-0.28048,0.62209 -0.96616,1.05667 -1.06089,1.72134c-0.05931,0.41605 5.39368,2.12906 5.48645,2.16539c1.60517,0.62869 5.11451,1.75566 6.04021,3.39928c0.77989,1.38469 0.62643,3.43487 0.93963,5.1523c-1.3572,3.67921 -2.04436,7.5945 -5.80906,9.26762c-2.78448,1.2375 -7.23322,-1.57333 -9.6288,-2.50759c-0.72628,-0.28324 -1.45771,-0.52805 -2.19345,-0.74172c-3.07613,8.09771 -0.97161,4.29079 -4.64531,12.07332zM171.67925,218.19933c0.69766,0.20007 1.395,0.40497 2.09188,0.61738c0.36548,-1.02652 0.91447,-2.06433 1.25993,-3.07465c1.76033,-5.14802 5.03702,-10.67156 6.30838,-15.83057c0.1239,-0.50273 -0.88307,0.13764 -1.21382,0.50739c-0.80104,0.89556 -1.71204,1.71678 -2.303,2.82099c-0.81018,1.5138 -1.19692,3.24289 -1.80766,4.85975c-1.38722,3.67252 -2.57314,6.88193 -4.33574,10.09968zM179.66833,226.96249c-1.0373,0.6352 -2.06029,0.23624 -2.06029,0.23624l-0.74765,-0.29157c-7.15173,-2.7891 -14.43591,-3.86345 -21.54754,-6.71795c-0.79762,-0.00042 -3.32819,-0.14232 -4.31145,0.3254c-2.47363,1.17668 -2.81736,4.85051 -0.9794,6.05343c2.49816,1.635 5.94711,0.01164 8.77659,0.51789c6.46504,1.15668 13.02794,1.0332 19.24435,3.45753c1.36533,0.53247 4.90141,2.97013 6.45458,2.6182c0.83049,-0.18819 0.99486,-1.85252 1.41178,-2.82201c-0.26897,-1.97346 -2.84111,-2.16042 -4.18019,-2.68027c-0.62706,-0.24343 -1.33245,-0.46076 -2.06084,-0.69685z"/><path d="M158.79941,233.72272c3.24741,0.50468 6.5265,0.71414 9.74446,1.19204c-2.889,7.70796 -0.6602,3.45855 -4.14985,10.81993c-1.44741,3.05329 -3.27008,5.8807 -4.71113,8.93744c-4.319,9.16146 -7.73546,18.99847 -11.37163,28.46843c-1.88513,4.90956 -3.7806,9.81872 -5.66573,14.72826c-1.66152,4.32725 -1.76125,6.41315 -5.08628,9.04825c-0.70596,0.55645 -1.44873,1.03915 -2.1202,1.66856c-0.2794,0.2619 -0.44654,1.15341 -0.7029,0.97412c-1.04158,-0.72843 -0.02275,-3.18752 0.04239,-4.79531c0.09885,-2.44004 -0.85738,-4.60403 -0.70404,-7.05254c0.06144,-0.98104 2.61053,-7.37265 2.78778,-7.8338c8.49547,-22.10294 12.24096,-31.86441 20.72895,-53.97028l0.45205,-0.41416c0,0 0.54217,-0.77114 0.75612,-1.77095z" data-paper-data="{&quot;noHover&quot;:false,&quot;origItem&quot;:[&quot;Path&quot;,{&quot;applyMatrix&quot;:true,&quot;segments&quot;:[[454.24679,357.70457],[[454.79267,356.87833],[0,0],[0,-35.57568]],[[454.79267,270.21275],[-0.01606,35.57567],[0.00034,-0.74225]],[[454.39017,257.72799],[0.58859,1.40674],[-1.46901,-3.51096]],[[448.03465,248.24271],[1.56471,3.46936],[-1.03102,-2.28604]],[[444.68216,241.50761],[2.4669,0.451],[-0.60715,-0.111]],[[444.06918,243.25483],[0.33389,-0.5191],[-0.80243,1.24754]],[[441.3118,246.74755],[0.91913,-1.16424],[-4.31893,5.50353]],[[438.31152,262.18816],[0,-6.96398],[0,7.90109]],[[438.31152,285.89144],[0,-7.90109],[0,15.24031]],[[437.47796,331.75641],[1.49602,-15.18121],[-0.49916,5.0653]],[[435.08636,346.83747],[0.51351,-5.06387],[-1.23806,12.20886]],[[435.08921,364.24668],[-0.13186,-12.36613],[6.35068,-1.08767]],[[454.10569,360.59602],[-6.42494,1.06628],[-0.31729,-1.51628]]],&quot;closed&quot;:true}]}"/><path d="M175.9848,208.0547c0.61073,-1.61687 1.04089,-3.36558 1.85106,-4.87938c0.59098,-1.10422 1.51371,-1.92255 2.31476,-2.81809c0.33074,-0.36975 1.34308,-1.0073 1.2192,-0.50458c-1.27136,5.159 -4.5938,10.80574 -6.35414,15.95378c-0.34546,1.01032 -0.89774,2.0475 -1.26323,3.07404c-0.69689,-0.21241 -1.407,-0.42291 -2.10465,-0.62299c1.76259,-3.21775 2.94977,-6.53022 4.33699,-10.20278z" data-paper-data="{&quot;noHover&quot;:false,&quot;origItem&quot;:[&quot;Path&quot;,{&quot;applyMatrix&quot;:true,&quot;segments&quot;:[[[441.20307,389.45414],[-0.98406,5.46615],[-1.44599,0.10079]],[[436.85479,389.73189],[1.4534,-0.08309],[0.05355,1.63636]],[[436.7066,394.72334],[-0.07927,-1.60276],[0.40394,8.16679]],[[436.27731,420.3255],[-1.32477,-7.91523],[0.12909,0.77131]],[[438.17985,418.95268],[-0.35244,0.69812],[0.85359,-1.69082]],[[440.45733,413.74686],[-0.31176,1.86823],[0.42741,-2.5612]],[[440.3484,405.95777],[0.01884,2.59655],[-0.04279,-5.89783]]],&quot;closed&quot;:true}]}"/><path d="M181.78051,227.65966c1.33908,0.51986 3.90978,0.71387 4.17876,2.68733c-0.41693,0.96947 -0.58364,2.64179 -1.41411,2.82998c-1.55318,0.35193 -5.1852,-2.11427 -6.55053,-2.64674c-6.21641,-2.42434 -12.78191,-2.29061 -19.24693,-3.44728c-2.8295,-0.50625 -6.27843,1.11708 -8.7766,-0.51793c-1.83795,-1.20292 -1.48917,-4.89382 0.98446,-6.07048c0.98326,-0.46772 3.51689,-0.33248 4.3145,-0.33204c7.11165,2.85452 14.49047,3.95202 21.64219,6.74109l0.74745,0.29328c0,0 1.02308,0.39828 2.06037,-0.23692c0.72837,0.23607 1.43337,0.45625 2.06045,0.69967z" data-paper-data="{&quot;noHover&quot;:false,&quot;origItem&quot;:[&quot;Path&quot;,{&quot;applyMatrix&quot;:true,&quot;segments&quot;:[[[420.00468,381.54917],[-1.52915,0.06717],[1.48133,-1.45533]],[423.68201,380.09383],[[425.28693,380.09383],[0,0],[15.3522,0]],[[470.33359,377.73478],[-15.32424,-0.11344],[1.4895,-0.43483]],[[478.15005,374.92577],[-1.50051,1.19143],[3.77489,-2.99733]],[[475.63898,365.91795],[4.29395,0.68045],[-5.83632,-0.92486]],[[458.88126,369.98403],[5.64576,-0.83597],[-12.89986,1.9101]],[[420.47217,375.64957],[13.34441,0],[-2.9309,0]],[[406.54408,375.50824],[2.64758,-1.34049],[-1.41567,0.71676]],[[405.93129,380.22896],[0.08342,-1.58458],[1.91699,2.61549]],[[415.65742,381.69875],[-2.87282,0.00332],[1.34525,-0.00156]]],&quot;closed&quot;:true}]}"/></g><path d="M218.73483,141.84041v-42.53033h42.53033v42.53033z" stroke-width="5"/><path d="M276.15773,264.6923l-75.37946,-22.41302l9.60558,-32.30548l75.37946,22.41302z" stroke-width="5"/></g></g></svg>