<svg width="280" height="70" viewBox="0 0 280 70" fill="none" xmlns="http://www.w3.org/2000/svg">
<g clip-path="url(#clip0_2002_77)">
<rect width="280" height="70" rx="35" fill="#7ED957"/>
<path d="M49.932 25.456C51.9853 25.456 53.7866 25.8573 55.336 26.66C56.904 27.4627 58.108 28.6107 58.948 30.104C59.8066 31.5787 60.236 33.296 60.236 35.256C60.236 37.216 59.8066 38.9333 58.948 40.408C58.108 41.864 56.904 42.9933 55.336 43.796C53.7866 44.5987 51.9853 45 49.932 45H43.1V25.456H49.932ZM49.792 41.668C51.8453 41.668 53.432 41.108 54.552 39.988C55.672 38.868 56.232 37.2907 56.232 35.256C56.232 33.2213 55.672 31.6347 54.552 30.496C53.432 29.3387 51.8453 28.76 49.792 28.76H47.02V41.668H49.792ZM70.0583 45.252C68.5649 45.252 67.2209 44.9253 66.0263 44.272C64.8316 43.6 63.8889 42.6573 63.1983 41.444C62.5263 40.2307 62.1903 38.8307 62.1903 37.244C62.1903 35.6573 62.5356 34.2573 63.2263 33.044C63.9356 31.8307 64.8969 30.8973 66.1103 30.244C67.3236 29.572 68.6769 29.236 70.1703 29.236C71.6636 29.236 73.0169 29.572 74.2303 30.244C75.4436 30.8973 76.3956 31.8307 77.0863 33.044C77.7956 34.2573 78.1503 35.6573 78.1503 37.244C78.1503 38.8307 77.7863 40.2307 77.0583 41.444C76.3489 42.6573 75.3783 43.6 74.1463 44.272C72.9329 44.9253 71.5703 45.252 70.0583 45.252ZM70.0583 41.836C70.7676 41.836 71.4303 41.668 72.0463 41.332C72.6809 40.9773 73.1849 40.4547 73.5583 39.764C73.9316 39.0733 74.1183 38.2333 74.1183 37.244C74.1183 35.7693 73.7263 34.64 72.9423 33.856C72.1769 33.0533 71.2343 32.652 70.1143 32.652C68.9943 32.652 68.0516 33.0533 67.2863 33.856C66.5396 34.64 66.1663 35.7693 66.1663 37.244C66.1663 38.7187 66.5303 39.8573 67.2583 40.66C68.0049 41.444 68.9383 41.836 70.0583 41.836ZM102.53 29.488L97.9938 45H93.7658L90.9378 34.164L88.1098 45H83.8538L79.2898 29.488H83.2658L86.0098 41.304L88.9778 29.488H93.1218L96.0338 41.276L98.7778 29.488H102.53ZM113.247 29.264C115.095 29.264 116.588 29.852 117.727 31.028C118.865 32.1853 119.435 33.8093 119.435 35.9V45H115.515V36.432C115.515 35.2 115.207 34.2573 114.591 33.604C113.975 32.932 113.135 32.596 112.071 32.596C110.988 32.596 110.129 32.932 109.495 33.604C108.879 34.2573 108.571 35.2 108.571 36.432V45H104.651V29.488H108.571V31.42C109.093 30.748 109.756 30.2253 110.559 29.852C111.38 29.46 112.276 29.264 113.247 29.264ZM127.082 24.28V45H123.162V24.28H127.082ZM137.843 45.252C136.35 45.252 135.006 44.9253 133.811 44.272C132.617 43.6 131.674 42.6573 130.983 41.444C130.311 40.2307 129.975 38.8307 129.975 37.244C129.975 35.6573 130.321 34.2573 131.011 33.044C131.721 31.8307 132.682 30.8973 133.895 30.244C135.109 29.572 136.462 29.236 137.955 29.236C139.449 29.236 140.802 29.572 142.015 30.244C143.229 30.8973 144.181 31.8307 144.871 33.044C145.581 34.2573 145.935 35.6573 145.935 37.244C145.935 38.8307 145.571 40.2307 144.843 41.444C144.134 42.6573 143.163 43.6 141.931 44.272C140.718 44.9253 139.355 45.252 137.843 45.252ZM137.843 41.836C138.553 41.836 139.215 41.668 139.831 41.332C140.466 40.9773 140.97 40.4547 141.343 39.764C141.717 39.0733 141.903 38.2333 141.903 37.244C141.903 35.7693 141.511 34.64 140.727 33.856C139.962 33.0533 139.019 32.652 137.899 32.652C136.779 32.652 135.837 33.0533 135.071 33.856C134.325 34.64 133.951 35.7693 133.951 37.244C133.951 38.7187 134.315 39.8573 135.043 40.66C135.79 41.444 136.723 41.836 137.843 41.836ZM147.803 37.188C147.803 35.62 148.111 34.2293 148.727 33.016C149.362 31.8027 150.211 30.8693 151.275 30.216C152.358 29.5627 153.562 29.236 154.887 29.236C156.044 29.236 157.052 29.4693 157.911 29.936C158.788 30.4027 159.488 30.9907 160.011 31.7V29.488H163.959V45H160.011V42.732C159.507 43.46 158.807 44.0667 157.911 44.552C157.034 45.0187 156.016 45.252 154.859 45.252C153.552 45.252 152.358 44.916 151.275 44.244C150.211 43.572 149.362 42.6293 148.727 41.416C148.111 40.184 147.803 38.7747 147.803 37.188ZM160.011 37.244C160.011 36.292 159.824 35.48 159.451 34.808C159.078 34.1173 158.574 33.5947 157.939 33.24C157.304 32.8667 156.623 32.68 155.895 32.68C155.167 32.68 154.495 32.8573 153.879 33.212C153.263 33.5667 152.759 34.0893 152.367 34.78C151.994 35.452 151.807 36.2547 151.807 37.188C151.807 38.1213 151.994 38.9427 152.367 39.652C152.759 40.3427 153.263 40.8747 153.879 41.248C154.514 41.6213 155.186 41.808 155.895 41.808C156.623 41.808 157.304 41.6307 157.939 41.276C158.574 40.9027 159.078 40.38 159.451 39.708C159.824 39.0173 160.011 38.196 160.011 37.244ZM166.779 37.188C166.779 35.62 167.087 34.2293 167.703 33.016C168.338 31.8027 169.197 30.8693 170.279 30.216C171.362 29.5627 172.566 29.236 173.891 29.236C174.899 29.236 175.861 29.46 176.775 29.908C177.69 30.3373 178.418 30.916 178.959 31.644V24.28H182.935V45H178.959V42.704C178.474 43.4693 177.793 44.0853 176.915 44.552C176.038 45.0187 175.021 45.252 173.863 45.252C172.557 45.252 171.362 44.916 170.279 44.244C169.197 43.572 168.338 42.6293 167.703 41.416C167.087 40.184 166.779 38.7747 166.779 37.188ZM178.987 37.244C178.987 36.292 178.801 35.48 178.427 34.808C178.054 34.1173 177.55 33.5947 176.915 33.24C176.281 32.8667 175.599 32.68 174.871 32.68C174.143 32.68 173.471 32.8573 172.855 33.212C172.239 33.5667 171.735 34.0893 171.343 34.78C170.97 35.452 170.783 36.2547 170.783 37.188C170.783 38.1213 170.97 38.9427 171.343 39.652C171.735 40.3427 172.239 40.8747 172.855 41.248C173.49 41.6213 174.162 41.808 174.871 41.808C175.599 41.808 176.281 41.6307 176.915 41.276C177.55 40.9027 178.054 40.38 178.427 39.708C178.801 39.0173 178.987 38.196 178.987 37.244Z" fill="white"/>
<path d="M246.625 41V49C246.625 50.0609 246.177 51.0783 245.38 51.8284C244.583 52.5786 243.502 53 242.375 53H212.625C211.498 53 210.417 52.5786 209.62 51.8284C208.823 51.0783 208.375 50.0609 208.375 49V41M216.875 31L227.5 41M227.5 41L238.125 31M227.5 41V17" stroke="white" stroke-width="4" stroke-linecap="round" stroke-linejoin="round"/>
</g>
<defs>
<clipPath id="clip0_2002_77">
<rect width="280" height="70" rx="35" fill="white"/>
</clipPath>
</defs>
</svg>
